<?xml version="1.0" encoding="UTF-8"?>
<svg version="1.1" xmlns="http://www.w3.org/2000/svg" width="1024" height="1024">
<path d="M0 0 C337.92 0 675.84 0 1024 0 C1024 337.92 1024 675.84 1024 1024 C686.08 1024 348.16 1024 0 1024 C0 686.08 0 348.16 0 0 Z " fill="#F5F5F7" transform="translate(0,0)"/>
<path d="M0 0 C1.79801559 -0.00856522 1.79801559 -0.00856522 3.63235474 -0.01730347 C4.94929825 -0.01842133 6.26624176 -0.01953918 7.62309265 -0.02069092 C9.02265046 -0.02531976 10.42220701 -0.03034451 11.82176208 -0.03573608 C15.62558452 -0.04885605 19.4293893 -0.05530429 23.23323083 -0.05974674 C25.61009156 -0.06267821 27.98694747 -0.06678317 30.36380577 -0.07125092 C37.8015358 -0.08492499 45.2392548 -0.094592 52.67699653 -0.09845281 C61.26072271 -0.10293303 69.84428962 -0.12047957 78.42796737 -0.1494534 C85.06416344 -0.17107546 91.70031472 -0.18115737 98.33654565 -0.18249393 C102.29945161 -0.18354161 106.26220782 -0.18944154 110.22507668 -0.20731354 C113.95399929 -0.22380329 117.68265974 -0.22594547 121.41160583 -0.21717453 C123.4286286 -0.21603815 125.44564271 -0.22974866 127.46261597 -0.243927 C128.6697525 -0.23835785 129.87688904 -0.2327887 131.12060547 -0.22705078 C132.16570943 -0.22851734 133.21081339 -0.2299839 134.28758717 -0.2314949 C138.44658574 0.29053847 141.82054016 1.80532658 144.89530945 4.67559814 C147.94557444 8.66440622 149.39180287 10.71125598 149.3757782 15.70294189 C149.37835632 16.50860596 149.38093445 17.31427002 149.3835907 18.14434814 C149.2507782 20.14044189 149.2507782 20.14044189 148.2507782 21.14044189 C143.9607782 21.14044189 139.6707782 21.14044189 135.2507782 21.14044189 C135.2507782 33.02044189 135.2507782 44.90044189 135.2507782 57.14044189 C137.91011414 57.12884033 140.56945007 57.11723877 143.30937195 57.10528564 C145.87423076 57.09749538 148.43908827 57.09141844 151.00395203 57.08551025 C152.79171841 57.08046971 154.57948064 57.07363735 156.36723328 57.06500244 C158.93128988 57.05292459 161.49529217 57.04721095 164.05937195 57.04278564 C164.8635405 57.03762436 165.66770905 57.03246307 166.49624634 57.02714539 C168.41479535 57.02694974 170.33323188 57.07842207 172.2507782 57.14044189 C173.87278335 58.76244704 173.3806857 60.5606722 173.3835907 62.79669189 C173.38487976 63.73641846 173.38616882 64.67614502 173.38749695 65.64434814 C173.38362976 66.63305908 173.37976257 67.62177002 173.3757782 68.64044189 C173.37964539 69.62915283 173.38351257 70.61786377 173.38749695 71.63653564 C173.38556335 73.04612549 173.38556335 73.04612549 173.3835907 74.48419189 C173.38246277 75.35237549 173.38133484 76.22055908 173.38017273 77.11505127 C173.2507782 79.14044189 173.2507782 79.14044189 172.2507782 80.14044189 C168.6207782 80.14044189 164.9907782 80.14044189 161.2507782 80.14044189 C161.2507782 178.15044189 161.2507782 276.16044189 161.2507782 377.14044189 C168.5107782 377.14044189 175.7707782 377.14044189 183.2507782 377.14044189 C183.2507782 307.51044189 183.2507782 237.88044189 183.2507782 166.14044189 C179.6207782 166.14044189 175.9907782 166.14044189 172.2507782 166.14044189 C170.62877305 164.51843675 171.1208707 162.72021159 171.1179657 160.48419189 C171.11667664 159.54446533 171.11538757 158.60473877 171.11405945 157.63653564 C171.11792664 156.64782471 171.12179382 155.65911377 171.1257782 154.64044189 C171.12191101 153.65173096 171.11804382 152.66302002 171.11405945 151.64434814 C171.11599304 150.2347583 171.11599304 150.2347583 171.1179657 148.79669189 C171.11909363 147.9285083 171.12022156 147.06032471 171.12138367 146.16583252 C171.2507782 144.14044189 171.2507782 144.14044189 172.2507782 143.14044189 C174.09195849 143.04662887 175.93675461 143.02300235 177.78031921 143.0269165 C178.96146805 143.02699203 180.14261688 143.02706757 181.35955811 143.02714539 C182.6449498 143.03230667 183.93034149 143.03746796 185.25468445 143.04278564 C187.216912 143.04490807 187.216912 143.04490807 189.21878052 143.04707336 C192.70240679 143.0508978 196.18599159 143.06072743 199.66960144 143.07177734 C203.22204528 143.08199307 206.77449579 143.08657133 210.32695007 143.09161377 C217.30157824 143.10234978 224.27617196 143.11994597 231.2507782 143.14044189 C231.2507782 135.22044189 231.2507782 127.30044189 231.2507782 119.14044189 C227.2907782 118.64544189 227.2907782 118.64544189 223.2507782 118.14044189 C214.18097893 115.11717547 207.49732753 108.55060014 203.2507782 100.14044189 C200.01377356 92.43328798 199.65467304 82.07383919 202.8132782 74.26544189 C207.39288821 65.6346384 214.87146346 58.26688014 224.2507782 55.14044189 C236.38418114 54.09741814 245.46347273 55.06634363 255.3992157 62.81622314 C261.27861256 68.21187217 264.82305142 75.02875627 265.48905945 82.98809814 C265.72496568 93.20656281 264.12356593 101.08627087 257.5007782 109.07794189 C251.12100654 115.68177207 245.39793636 117.10774008 236.2507782 119.14044189 C236.2507782 127.06044189 236.2507782 134.98044189 236.2507782 143.14044189 C239.21660133 143.13711098 239.21660133 143.13711098 242.24234009 143.13371277 C260.82852155 143.11331305 279.41470155 143.09841239 298.00089169 143.08862972 C307.55741759 143.08346639 317.11393529 143.07642297 326.67045593 143.06500244 C334.99679827 143.05505675 343.32313467 143.04858874 351.64948279 143.0463534 C356.06102677 143.0450461 360.47255377 143.04195901 364.88409233 143.03471184 C369.03148207 143.02795343 373.17884773 143.02582456 377.32624245 143.02733421 C378.8529155 143.0270578 380.37958932 143.02505162 381.90625763 143.02123642 C383.98161279 143.01630196 386.05687562 143.01744267 388.13223267 143.02018738 C389.87856947 143.01880469 389.87856947 143.01880469 391.66018581 143.01739407 C394.2507782 143.14044189 394.2507782 143.14044189 395.2507782 144.14044189 C395.33778162 145.77517071 395.35778882 147.41358245 395.34843445 149.05059814 C395.34521179 150.03995361 395.34198914 151.02930908 395.33866882 152.04864502 C395.33028992 153.08956299 395.32191101 154.13048096 395.3132782 155.20294189 C395.30876648 156.24772705 395.30425476 157.29251221 395.29960632 158.36895752 C395.28777747 160.95947644 395.26984139 163.54996611 395.2507782 166.14044189 C391.2907782 166.14044189 387.3307782 166.14044189 383.2507782 166.14044189 C383.2507782 193.20044189 383.2507782 220.26044189 383.2507782 248.14044189 C438.6907782 248.14044189 494.1307782 248.14044189 551.2507782 248.14044189 C551.2507782 321.07044189 551.2507782 394.00044189 551.2507782 469.14044189 C507.6907782 469.14044189 464.1307782 469.14044189 419.2507782 469.14044189 C418.9207782 470.79044189 418.5907782 472.44044189 418.2507782 474.14044189 C416.45251277 475.93870732 413.73604032 475.28685835 411.30986023 475.30157471 C410.03829071 475.31118225 408.76672119 475.32078979 407.45661926 475.33068848 C406.05727822 475.33553608 404.65793511 475.339815 403.2585907 475.34356689 C401.83231096 475.34931611 400.40603126 475.35507387 398.97975159 475.36083984 C395.98529194 475.3713592 392.99085921 475.3771956 389.99638367 475.38067627 C386.15711762 475.38616035 382.31820636 475.41018217 378.47905159 475.43864822 C375.53139708 475.45726281 372.58382817 475.46247958 369.63611984 475.46401215 C368.22070757 475.46704235 366.80529693 475.47508329 365.38994217 475.48819733 C363.41019434 475.50522982 361.43030087 475.50153682 359.45048523 475.49688721 C358.32321014 475.50053284 357.19593506 475.50417847 356.03450012 475.50793457 C353.2507782 475.14044189 353.2507782 475.14044189 351.36329651 473.80566406 C350.2507782 472.14044189 350.2507782 472.14044189 350.2507782 469.14044189 C339.6907782 469.14044189 329.1307782 469.14044189 318.2507782 469.14044189 C318.2507782 456.27044189 318.2507782 443.40044189 318.2507782 430.14044189 C330.1307782 430.14044189 342.0107782 430.14044189 354.2507782 430.14044189 C353.22794653 418.88929352 352.16303907 412.59547026 344.1882782 404.76544189 C336.71039308 398.60645166 327.71419903 396.77133662 318.2507782 396.14044189 C318.2507782 391.52044189 318.2507782 386.90044189 318.2507782 382.14044189 C190.2107782 382.14044189 62.1707782 382.14044189 -69.7492218 382.14044189 C-70.0792218 380.49044189 -70.4092218 378.84044189 -70.7492218 377.14044189 C-56.8892218 377.14044189 -43.0292218 377.14044189 -28.7492218 377.14044189 C-28.7492218 279.13044189 -28.7492218 181.12044189 -28.7492218 80.14044189 C-32.3792218 80.14044189 -36.0092218 80.14044189 -39.7492218 80.14044189 C-42.19909112 77.69057258 -42.00553491 77.00336389 -42.0148468 73.64044189 C-42.01871399 72.31012939 -42.01871399 72.31012939 -42.0226593 70.95294189 C-42.01492493 70.02481689 -42.00719055 69.09669189 -41.9992218 68.14044189 C-42.00695618 67.21231689 -42.01469055 66.28419189 -42.0226593 65.32794189 C-42.02008118 64.44106689 -42.01750305 63.55419189 -42.0148468 62.64044189 C-42.01259094 61.82575439 -42.01033508 61.01106689 -42.00801086 60.17169189 C-41.7492218 58.14044189 -41.7492218 58.14044189 -39.7492218 56.14044189 C-37.02436452 55.96526443 -34.40262818 55.90895056 -31.6789093 55.94512939 C-30.88268158 55.94795929 -30.08645386 55.95078918 -29.26609802 55.95370483 C-26.71865417 55.9649155 -24.17155969 55.99002128 -21.6242218 56.01544189 C-19.89896646 56.02547057 -18.17370561 56.03459661 -16.44844055 56.04278564 C-12.21512418 56.06315772 -7.98256485 56.10230367 -3.7492218 56.14044189 C-3.7492218 44.59044189 -3.7492218 33.04044189 -3.7492218 21.14044189 C-8.0392218 21.14044189 -12.3292218 21.14044189 -16.7492218 21.14044189 C-18.35741919 17.92404711 -18.21783411 14.62900022 -17.7492218 11.14044189 C-13.71519237 3.37120002 -8.61110249 0.0245362 0 0 Z " fill="#101010" transform="translate(232.7492218017578,273.85955810546875)"/>
<path d="M0 0 C59.73 0 119.46 0 181 0 C181 98.01 181 196.02 181 297 C158.89 297 136.78 297 114 297 C113.8125 274.5 113.8125 274.5 113.79223633 267.44335938 C113.76576752 265.57679451 113.73748527 263.7102541 113.70703125 261.84375 C113.71101929 260.89145508 113.71500732 259.93916016 113.71911621 258.95800781 C113.55748145 251.30266806 111.21921879 246.67302937 106.2265625 240.9765625 C100.49141407 236.13665675 94.7563317 234.49227858 87.26953125 234.68359375 C80.89036264 235.57294428 76.10873645 239.18690873 72 244 C68.94284155 248.47655345 67.90271591 252.1221231 67.79467773 257.49316406 C67.77449585 258.38600098 67.75431396 259.27883789 67.73352051 260.19873047 C67.71704468 261.12830566 67.70056885 262.05788086 67.68359375 263.015625 C67.66494263 263.87655762 67.6462915 264.73749023 67.6270752 265.62451172 C67.55890458 268.83290589 67.49867485 272.04146482 67.4375 275.25 C67.293125 282.4275 67.14875 289.605 67 297 C44.89 297 22.78 297 0 297 C0 198.99 0 100.98 0 0 Z " fill="#F5F5F7" transform="translate(208,354)"/>
<path d="M0 0 C38.28 0 76.56 0 116 0 C116 8.91 116 17.82 116 27 C118.97 27 121.94 27 125 27 C125 18.09 125 9.18 125 0 C154.7 0 184.4 0 215 0 C215 22.77 215 45.54 215 69 C206.09 69 197.18 69 188 69 C188 71.64 188 74.28 188 77 C197.24 77 206.48 77 216 77 C216 119.24 216 161.48 216 205 C175.08 205 134.16 205 92 205 C91.01 202.525 91.01 202.525 90 200 C88.93905414 198.71489224 88.93905414 198.71489224 86.48802185 198.87974548 C84.81257042 198.8830764 84.81257042 198.8830764 83.10327148 198.88647461 C81.21142372 198.88658791 81.21142372 198.88658791 79.28135681 198.88670349 C77.89460206 198.8918109 76.50784771 198.89702691 75.12109375 198.90234375 C73.71004791 198.90420799 72.29900143 198.90563186 70.88795471 198.90663147 C67.16759465 198.91045621 63.4472734 198.9202861 59.72692871 198.93133545 C55.93319219 198.94155052 52.13944942 198.94612929 48.34570312 198.95117188 C40.89711769 198.96190842 33.44856428 198.9789843 26 199 C25.34 200.98 24.68 202.96 24 205 C16.08 205 8.16 205 0 205 C0 196.42 0 187.84 0 179 C10.56 179 21.12 179 32 179 C31.88797133 166.22873202 30.452147 156.97518599 22.1796875 146.75 C16.1553072 140.90206599 8.02043482 138.0051087 0 136 C0 112.9 0 89.8 0 66 C3.96 65.01 7.92 64.02 12 63 C22.2791906 57.33326672 27.50365024 50.13652146 31 39 C31.33 34.38 31.66 29.76 32 25 C21.44 25 10.88 25 0 25 C0 16.75 0 8.5 0 0 Z " fill="#F5F5F7" transform="translate(560,530)"/>
<path d="M0 0 C62.7 0 125.4 0 190 0 C190 26.4 190 52.8 190 80 C170.53 80.33 151.06 80.66 131 81 C130.67 93.21 130.34 105.42 130 118 C142.21 118 154.42 118 167 118 C165.98013885 129.2184726 164.69935451 136.60554867 156 144 C155.236875 144.70125 154.47375 145.4025 153.6875 146.125 C145.65578742 151.72852041 140.30320853 151 130 151 C130 170.47 130 189.94 130 210 C125.71 210 121.42 210 117 210 C116.99589111 208.71947754 116.99178223 207.43895508 116.98754883 206.11962891 C116.96563529 201.32951627 116.9112197 196.54021083 116.84741211 191.75048828 C116.82433824 189.68481228 116.80986152 187.61902041 116.80444336 185.55322266 C116.79507591 182.56861031 116.75391601 179.58579403 116.70703125 176.6015625 C116.7109639 175.69072906 116.71489655 174.77989563 116.71894836 173.84146118 C116.5555806 166.5213625 114.50802676 159.94607083 109.55769348 154.37759399 C104.0562039 149.53877146 98.90974963 147.38732144 91.65234375 147.66015625 C83.71462232 148.67721334 78.4386504 151.77970877 73.375 157.90234375 C69.66631546 163.56019488 69.66496287 168.75078741 69.5859375 175.33203125 C69.56829346 176.21161499 69.55064941 177.09119873 69.5324707 177.99743652 C69.46961947 181.26894171 69.42328395 184.54074739 69.375 187.8125 C69.189375 198.7953125 69.189375 198.7953125 69 210 C46.23 210 23.46 210 0 210 C0 140.7 0 71.4 0 0 Z " fill="#F5F5F7" transform="translate(421,441)"/>
<path d="M0 0 C42.9 0 85.8 0 130 0 C130 11.88 130 23.76 130 36 C87.1 36 44.2 36 0 36 C0 24.12 0 12.24 0 0 Z " fill="#DFDFDF" transform="translate(234,295)"/>
<path d="M0 0 C4.86076468 3.32530817 8.37396406 7.2605285 10.77734375 12.6796875 C10.77734375 13.6696875 10.77734375 14.6596875 10.77734375 15.6796875 C11.84063904 15.64970924 11.84063904 15.64970924 12.92541504 15.61912537 C19.6330837 15.43816815 26.34006361 15.30146169 33.04962921 15.21337795 C36.49867042 15.16656579 39.94568185 15.10317799 43.39355469 15.00073242 C47.36497973 14.88348054 51.33560727 14.84043022 55.30859375 14.80078125 C56.53598267 14.75432968 57.76337158 14.70787811 59.0279541 14.66001892 C63.92929948 14.65714814 67.37863138 14.66406719 71.42553711 17.60256958 C73.59609322 19.89429609 75.35076987 21.86186432 76.77734375 24.6796875 C76.43800057 27.91190269 75.36001355 29.46278622 73.0546875 31.6953125 C72.51650391 32.22382812 71.97832031 32.75234375 71.42382812 33.296875 C70.85986328 33.83570313 70.29589844 34.37453125 69.71484375 34.9296875 C69.14701172 35.48398437 68.57917969 36.03828125 67.99414062 36.609375 C66.59521906 37.97302964 65.18715261 39.32729167 63.77734375 40.6796875 C59.10042067 39.20276442 59.10042067 39.20276442 57.46484375 36.5546875 C57.23796875 35.9359375 57.01109375 35.3171875 56.77734375 34.6796875 C56.25785156 35.19660156 55.73835937 35.71351563 55.203125 36.24609375 C54.50574219 36.90480469 53.80835938 37.56351563 53.08984375 38.2421875 C52.40535156 38.90347656 51.72085938 39.56476562 51.015625 40.24609375 C48.77734375 41.6796875 48.77734375 41.6796875 46.2578125 41.64453125 C43.77734375 40.6796875 43.77734375 40.6796875 42.04321289 38.6574707 C38.9913036 35.99358565 37.05446154 36.14068957 33.04296875 36.0703125 C31.74746094 36.03808594 30.45195313 36.00585938 29.1171875 35.97265625 C27.75391073 35.95791281 26.3906293 35.94359528 25.02734375 35.9296875 C23.64839999 35.90151936 22.269491 35.87159072 20.890625 35.83984375 C17.51947159 35.76912025 14.14901095 35.71643246 10.77734375 35.6796875 C10.48214844 36.6078125 10.18695312 37.5359375 9.8828125 38.4921875 C7.28259314 45.9896398 2.27363397 51.47575704 -4.8046875 54.9453125 C-14.4083762 58.75992452 -22.67581737 58.76678331 -32.22265625 54.6796875 C-40.23734615 50.11003304 -46.18875397 43.07083855 -48.75 34.16015625 C-50.41433433 25.42583973 -49.72765737 17.42067534 -45.22265625 9.6796875 C-34.06236896 -6.09083133 -16.66169698 -9.89745796 0 0 Z " fill="#DAD9D9" transform="translate(654.22265625,624.3203125)"/>
<path d="M0 0 C71.28 0 142.56 0 216 0 C216 4.62 216 9.24 216 14 C144.72 14 73.44 14 0 14 C0 9.38 0 4.76 0 0 Z " fill="#DCDDDC" transform="translate(408,422)"/>
<path d="M0 0 C67.65 0 135.3 0 205 0 C205 4.62 205 9.24 205 14 C137.35 14 69.7 14 0 14 C0 9.38 0 4.76 0 0 Z " fill="#DDDDDD" transform="translate(196,335)"/>
<path d="M0 0 C7.06530344 4.30495217 12.10522624 11.08938316 14.45703125 19 C15.51157062 28.0690386 14.52759223 35.97651407 9.37890625 43.80078125 C3.35483261 51.20405069 -4.20682507 54.70937512 -13.55859375 56.01171875 C-19.53978267 56.31496085 -24.0543268 54.56524497 -29.23046875 51.6875 C-29.86082031 51.34847656 -30.49117187 51.00945313 -31.140625 50.66015625 C-37.30247609 46.85470536 -40.97459816 40.45511178 -43.23046875 33.6875 C-44.16670192 23.35338201 -43.86616293 15.21700955 -37.23046875 6.6875 C-27.29245847 -4.59924025 -13.33724033 -6.15296015 0 0 Z " fill="#038EE5" transform="translate(849.23046875,504.3125)"/>
<path d="M0 0 C1.75 1.12109375 1.75 1.12109375 3.3125 2.3125 C4.364375 3.055 5.41625 3.7975 6.5 4.5625 C12.585125 10.5124 16.26884224 17.4242684 16.6875 26 C16.44070368 35.13146389 13.04360476 42.81509675 6.70703125 49.36328125 C0.1146071 54.72970809 -7.62981085 57.17259253 -16.08984375 56.734375 C-20.40099823 56.03421758 -23.92429038 54.48632374 -27.6875 52.3125 C-28.6465625 51.76916016 -28.6465625 51.76916016 -29.625 51.21484375 C-36.2576137 46.99798806 -39.5946051 40.75696389 -41.6875 33.3125 C-42.84215441 23.05430713 -41.52048054 15.40064782 -35.078125 7.28515625 C-33.38130421 5.4443392 -31.64415399 3.87203183 -29.6875 2.3125 C-28.88119141 1.66087891 -28.88119141 1.66087891 -28.05859375 0.99609375 C-20.81255885 -3.65628213 -7.69893977 -3.64843374 0 0 Z " fill="#DFDEDC" transform="translate(847.6875,584.6875)"/>
<path d="M0 0 C6.67456054 4.35521518 12.67653223 9.47217515 15.0234375 17.3203125 C16.28935881 25.85542553 16.18404348 34.68957394 11.64453125 42.23828125 C6.92538677 48.29925476 1.17283056 52.74688684 -6.2265625 55.0078125 C-14.53076358 55.95147171 -20.61593243 55.50093107 -27.9765625 51.3203125 C-28.61722656 50.95808594 -29.25789062 50.59585938 -29.91796875 50.22265625 C-36.11265648 46.27571699 -39.70112713 40.21647845 -41.9765625 33.3203125 C-42.97072023 24.16359653 -42.71912974 15.88824334 -36.9765625 8.3203125 C-27.28743006 -2.25623581 -13.48913397 -7.17080356 0 0 Z " fill="#DFE0E0" transform="translate(847.9765625,666.6796875)"/>
<path d="M0 0 C6.81706021 3.64297927 11.5322796 8.9443453 14.21484375 16.18359375 C15.36123657 24.83364868 15.38765843 33.77636799 10.21484375 41.18359375 C5.98143538 46.66728335 0.91555342 50.27756149 -5.78515625 52.18359375 C-7.43515625 52.18359375 -9.08515625 52.18359375 -10.78515625 52.18359375 C-11.11515625 41.62359375 -11.44515625 31.06359375 -11.78515625 20.18359375 C-12.44515625 20.18359375 -13.10515625 20.18359375 -13.78515625 20.18359375 C-14.11515625 24.14359375 -14.44515625 28.10359375 -14.78515625 32.18359375 C-15.44515625 32.18359375 -16.10515625 32.18359375 -16.78515625 32.18359375 C-18.29296875 30.65234375 -18.29296875 30.65234375 -19.91015625 28.68359375 C-20.71839844 27.7090625 -20.71839844 27.7090625 -21.54296875 26.71484375 C-21.95289063 26.20953125 -22.3628125 25.70421875 -22.78515625 25.18359375 C-23.77515625 25.51359375 -24.76515625 25.84359375 -25.78515625 26.18359375 C-24.29278934 29.86531212 -22.18826374 31.61689692 -19.16015625 34.12109375 C-16.12567783 37.02448271 -14.90499188 38.47727779 -14.1953125 42.66015625 C-14.21985906 45.87926271 -14.38541113 48.99056793 -14.78515625 52.18359375 C-22.57534414 51.90031419 -27.70667664 49.02930654 -33.359375 43.69921875 C-39.75519705 36.55433646 -40.33367095 30.10123156 -40.140625 20.7890625 C-39.67948945 16.11183048 -38.49334784 12.9712743 -35.78515625 9.18359375 C-35.24890625 8.31734375 -34.71265625 7.45109375 -34.16015625 6.55859375 C-24.54001705 -3.06154545 -12.40086088 -5.66168846 0 0 Z " fill="#DCDDDD" transform="translate(478.78515625,335.81640625)"/>
<path d="M0 0 C5.0843347 2.2967844 8.67566547 5.73170179 11.7734375 10.3515625 C12.70856184 13.15693553 12.89526657 14.83321614 12.88696289 17.73120117 C12.88688736 18.61188766 12.88681183 19.49257416 12.88673401 20.39994812 C12.88157272 21.34691055 12.87641144 22.29387299 12.87109375 23.26953125 C12.8696788 24.24191238 12.86826385 25.21429352 12.86680603 26.21614075 C12.86120567 29.32381254 12.84865312 32.43141246 12.8359375 35.5390625 C12.83092255 37.64518125 12.82635963 39.75130113 12.82226562 41.85742188 C12.81208675 47.02218543 12.79251133 52.18679344 12.7734375 57.3515625 C0.2334375 57.3515625 -12.3065625 57.3515625 -25.2265625 57.3515625 C-25.31852692 51.05199999 -25.39812622 44.75477774 -25.44628906 38.45507812 C-25.46637138 36.31339616 -25.49364287 34.1717688 -25.52832031 32.03027344 C-25.57698648 28.94712835 -25.5995654 25.86470988 -25.6171875 22.78125 C-25.64815521 21.35122147 -25.64815521 21.35122147 -25.67974854 19.89230347 C-25.68210002 12.88370919 -24.36445216 9.50931222 -19.375 4.48828125 C-18.78976562 4.01003906 -18.20453125 3.53179688 -17.6015625 3.0390625 C-17.01117188 2.54792969 -16.42078125 2.05679688 -15.8125 1.55078125 C-11.30146239 -1.86027428 -5.27460261 -1.53611234 0 0 Z " fill="#F5F5F7" transform="translate(520.2265625,593.6484375)"/>
<path d="M0 0 C4.95220762 3.04311935 8.26075028 6.41214826 10.43359375 11.89453125 C10.95447147 15.41540294 10.90157295 18.86914742 10.82421875 22.421875 C10.81855896 23.41079239 10.81289917 24.39970978 10.80706787 25.41859436 C10.7847939 28.55691268 10.73461373 31.69406182 10.68359375 34.83203125 C10.66351717 36.96808239 10.64526843 39.10415155 10.62890625 41.24023438 C10.58837107 46.45913899 10.51006254 51.67553661 10.43359375 56.89453125 C-1.77640625 56.89453125 -13.98640625 56.89453125 -26.56640625 56.89453125 C-26.70468484 50.64894827 -26.82395575 44.40873999 -26.89599609 38.1628418 C-26.92604389 36.04156433 -26.96689497 33.9204098 -27.01904297 31.79956055 C-27.09238858 28.73845997 -27.12598309 25.67901091 -27.15234375 22.6171875 C-27.18331146 21.679319 -27.21427917 20.7414505 -27.2461853 19.77516174 C-27.24974237 12.70904657 -25.20268721 8.22153715 -20.56640625 2.89453125 C-14.8121299 -2.16586152 -7.03396499 -3.02985098 0 0 Z " fill="#F5F5F7" transform="translate(306.56640625,594.10546875)"/>
<path d="M0 0 C1.40001053 -0.00678083 2.80001214 -0.01568658 4.19999695 -0.02655029 C7.99146945 -0.04929568 11.78225978 -0.04052758 15.57374382 -0.02465487 C19.54678014 -0.01197091 23.51975917 -0.02374289 27.49279785 -0.03158569 C34.16408749 -0.04067504 40.83510011 -0.02871331 47.50634766 -0.00488281 C55.21257239 0.02232734 62.91813564 0.01351266 70.62434435 -0.01401484 C77.24791632 -0.03672548 83.87128949 -0.03989652 90.49488783 -0.02682149 C94.44773668 -0.01903762 98.4002749 -0.01795577 102.35310364 -0.03450394 C106.06998881 -0.04897822 109.78602358 -0.03887452 113.50281715 -0.01003265 C115.51262375 -0.00029833 117.52250251 -0.01509686 119.53227234 -0.03067017 C129.38607429 0.08483518 129.38607429 0.08483518 133.08166504 2.81240845 C135.28710938 5.64697266 135.28710938 5.64697266 136.28710938 11.64697266 C84.47710937 11.64697266 32.66710937 11.64697266 -20.71289062 11.64697266 C-19.48354347 4.27088971 -19.48354347 4.27088971 -15.85420227 1.59221268 C-10.9107528 -0.58997612 -5.30175414 -0.04108223 0 0 Z " fill="#DFE0E0" transform="translate(240.712890625,278.35302734375)"/>
<path d="M0 0 C0.80103149 0.00202423 1.60206299 0.00404846 2.42736816 0.00613403 C3.24483521 0.00517731 4.06230225 0.00422058 4.90454102 0.00323486 C6.63627194 0.00255308 8.3680054 0.00440724 10.09973145 0.00857544 C12.75978298 0.01392374 15.41966566 0.00863041 18.07971191 0.00222778 C19.75809771 0.00288857 21.43648339 0.00416973 23.11486816 0.00613403 C23.91589966 0.0041098 24.71693115 0.00208557 25.54223633 0 C31.15616738 0.02399575 31.15616738 0.02399575 32.27111816 1.13894653 C32.37215071 3.93888251 32.41081904 6.71363297 32.40393066 9.51394653 C32.40488739 10.35360962 32.40584412 11.19327271 32.40682983 12.05838013 C32.40751164 13.83718948 32.40565733 15.61600131 32.40148926 17.39480591 C32.39614099 20.12728429 32.40143422 22.8595983 32.40783691 25.59207153 C32.40717613 27.31603023 32.40589497 29.03998883 32.40393066 30.76394653 C32.4059549 31.58685181 32.40797913 32.40975708 32.4100647 33.25759888 C32.38606871 39.02399599 32.38606871 39.02399599 31.27111816 40.13894653 C28.54387538 40.23994141 25.84249293 40.27865182 23.11486816 40.27175903 C21.8886676 40.27319412 21.8886676 40.27319412 20.63769531 40.2746582 C18.90596439 40.27533999 17.17423092 40.27348583 15.44250488 40.26931763 C12.78245334 40.26396932 10.12257066 40.26926265 7.46252441 40.27566528 C5.78413862 40.2750045 4.10575294 40.27372334 2.42736816 40.27175903 C1.62633667 40.27378326 0.82530518 40.2758075 0 40.27789307 C-5.61393105 40.25389732 -5.61393105 40.25389732 -6.72888184 39.13894653 C-6.82991438 36.33901056 -6.86858271 33.5642601 -6.86169434 30.76394653 C-6.86265106 29.92428345 -6.86360779 29.08462036 -6.86459351 28.21951294 C-6.86527531 26.44070359 -6.863421 24.66189176 -6.85925293 22.88308716 C-6.85390466 20.15060877 -6.85919789 17.41829477 -6.86560059 14.68582153 C-6.8649398 12.96186283 -6.86365864 11.23790424 -6.86169434 9.51394653 C-6.86371857 8.69104126 -6.8657428 7.86813599 -6.86782837 7.02029419 C-6.83984235 0.29506658 -6.73962269 0.02880731 0 0 Z " fill="#038ADF" transform="translate(325.7288818359375,513.8610534667969)"/>
<path d="M0 0 C0.77602066 0.00202423 1.55204132 0.00404846 2.35157776 0.00613403 C3.14447708 0.00517731 3.9373764 0.00422058 4.75430298 0.00323486 C6.43475931 0.00255302 8.11521826 0.00440757 9.79566956 0.00857544 C12.37230846 0.01391663 14.94877249 0.00863425 17.52540588 0.00222778 C19.15496356 0.0028887 20.78452113 0.00417015 22.41407776 0.00613403 C23.18807419 0.0041098 23.96207062 0.00208557 24.75952148 0 C30.21932235 0.0239907 30.21932235 0.0239907 32.44923401 1.13894653 C32.4738825 6.53241641 32.49206932 11.92585379 32.50416565 17.31936646 C32.50920632 19.15563528 32.51603878 20.99190007 32.52467346 22.82815552 C32.53675073 25.46171055 32.54246482 28.0952127 32.54689026 30.72879028 C32.55205154 31.55483261 32.55721283 32.38087494 32.56253052 33.23194885 C32.56272605 35.20131021 32.51127553 37.17056267 32.44923401 39.13894653 C30.63357965 40.9546009 28.13653439 40.26756553 25.72035217 40.27789307 C24.91932068 40.27586884 24.11828918 40.2738446 23.29298401 40.27175903 C22.06678345 40.27319412 22.06678345 40.27319412 20.81581116 40.2746582 C19.08408023 40.27533999 17.35234677 40.27348583 15.62062073 40.26931763 C12.96056919 40.26396932 10.30068651 40.26926265 7.64064026 40.27566528 C5.96225447 40.2750045 4.28386878 40.27372334 2.60548401 40.27175903 C1.80445251 40.27378326 1.00342102 40.2758075 0.17811584 40.27789307 C-5.4358152 40.25389732 -5.4358152 40.25389732 -6.55076599 39.13894653 C-6.65179854 36.33901056 -6.69046687 33.5642601 -6.68357849 30.76394653 C-6.68453522 29.92428345 -6.68549194 29.08462036 -6.68647766 28.21951294 C-6.68715947 26.44070359 -6.68530516 24.66189176 -6.68113708 22.88308716 C-6.67578882 20.15060877 -6.68108205 17.41829477 -6.68748474 14.68582153 C-6.68682396 12.96186283 -6.6855428 11.23790424 -6.68357849 9.51394653 C-6.68560272 8.69104126 -6.68762695 7.86813599 -6.68971252 7.02029419 C-6.66220042 0.40895135 -6.64326172 0.02931973 0 0 Z " fill="#038ADD" transform="translate(444.55076599121094,528.8610534667969)"/>
<path d="M0 0 C12.87 0 25.74 0 39 0 C39.020625 6.249375 39.04125 12.49875 39.0625 18.9375 C39.071604 20.91226318 39.08070801 22.88702637 39.09008789 24.92163086 C39.09300705 26.47770113 39.09555561 28.03377216 39.09765625 29.58984375 C39.10277222 30.40521606 39.10788818 31.22058838 39.11315918 32.06066895 C39.1134694 34.04080523 39.06238096 36.02084654 39 38 C37.18434564 39.81565436 34.68730038 39.12861899 32.27111816 39.13894653 C31.47008667 39.1369223 30.66905518 39.13489807 29.84375 39.1328125 C28.61754944 39.13424759 28.61754944 39.13424759 27.36657715 39.13571167 C25.63484622 39.13639345 23.90311276 39.13453929 22.17138672 39.13037109 C19.51133518 39.12502279 16.8514525 39.13031612 14.19140625 39.13671875 C12.51302046 39.13605797 10.83463477 39.1347768 9.15625 39.1328125 C8.35521851 39.13483673 7.55418701 39.13686096 6.72888184 39.13894653 C1.11495079 39.11495079 1.11495079 39.11495079 0 38 C-0.0886126 35.18859849 -0.11529584 32.40120576 -0.09765625 29.58984375 C-0.09664917 28.84383911 -0.09564209 28.09783447 -0.09460449 27.32922363 C-0.08935689 24.53196687 -0.07539573 21.73473196 -0.0625 18.9375 C-0.041875 12.688125 -0.02125 6.43875 0 0 Z " fill="#038BE1" transform="translate(238,515)"/>
<path d="M0 0 C0.80103149 0.00202423 1.60206299 0.00404846 2.42736816 0.00613403 C3.24483521 0.00517731 4.06230225 0.00422058 4.90454102 0.00323486 C6.63627194 0.00255308 8.3680054 0.00440724 10.09973145 0.00857544 C12.75978298 0.01392374 15.41966566 0.00863041 18.07971191 0.00222778 C19.75809771 0.00288857 21.43648339 0.00416973 23.11486816 0.00613403 C23.91589966 0.0041098 24.71693115 0.00208557 25.54223633 0 C31.15616738 0.02399575 31.15616738 0.02399575 32.27111816 1.13894653 C32.35973809 3.95058033 32.38634172 6.73752909 32.36877441 9.54910278 C32.36735947 10.39113754 32.36594452 11.2331723 32.36448669 12.10072327 C32.3588708 14.80099988 32.34631565 17.50119481 32.33361816 20.20144653 C32.32860521 22.02761721 32.32404195 23.85378919 32.31994629 25.67996216 C32.30889621 30.16632195 32.29162096 34.65262038 32.27111816 39.13894653 C26.87764828 39.16359503 21.48421091 39.18178184 16.09069824 39.19387817 C14.25442942 39.19891885 12.41816462 39.2057513 10.58190918 39.21438599 C7.94835415 39.22646326 5.314852 39.23217734 2.68127441 39.23660278 C1.44221092 39.24434471 1.44221092 39.24434471 0.17811584 39.25224304 C-1.79124551 39.25243858 -3.76049797 39.20098805 -5.72888184 39.13894653 C-7.5445362 37.32329217 -6.85750083 34.82624692 -6.86782837 32.4100647 C-6.86580414 31.6090332 -6.86377991 30.80800171 -6.86169434 29.98269653 C-6.86265106 29.16522949 -6.86360779 28.34776245 -6.86459351 27.50552368 C-6.86527529 25.77379276 -6.86342113 24.04205929 -6.85925293 22.31033325 C-6.85390463 19.65028171 -6.85919796 16.99039903 -6.86560059 14.33035278 C-6.8649398 12.65196699 -6.86365864 10.97358131 -6.86169434 9.29519653 C-6.86371857 8.49416504 -6.8657428 7.69313354 -6.86782837 6.86782837 C-6.83941893 0.2212902 -6.64653817 0.02840944 0 0 Z " fill="#038BDF" transform="translate(325.7288818359375,448.8610534667969)"/>
<path d="M0 0 C0.80103149 0.00202423 1.60206299 0.00404846 2.42736816 0.00613403 C3.24483521 0.00517731 4.06230225 0.00422058 4.90454102 0.00323486 C6.63627194 0.00255308 8.3680054 0.00440724 10.09973145 0.00857544 C12.75978298 0.01392374 15.41966566 0.00863041 18.07971191 0.00222778 C19.75809771 0.00288857 21.43648339 0.00416973 23.11486816 0.00613403 C23.91589966 0.0041098 24.71693115 0.00208557 25.54223633 0 C31.15616738 0.02399575 31.15616738 0.02399575 32.27111816 1.13894653 C32.35973809 3.95058033 32.38634172 6.73752909 32.36877441 9.54910278 C32.36735947 10.39113754 32.36594452 11.2331723 32.36448669 12.10072327 C32.3588708 14.80099988 32.34631565 17.50119481 32.33361816 20.20144653 C32.32860521 22.02761721 32.32404195 23.85378919 32.31994629 25.67996216 C32.30889621 30.16632195 32.29162096 34.65262038 32.27111816 39.13894653 C26.87764828 39.16359503 21.48421091 39.18178184 16.09069824 39.19387817 C14.25442942 39.19891885 12.41816462 39.2057513 10.58190918 39.21438599 C7.94835415 39.22646326 5.314852 39.23217734 2.68127441 39.23660278 C1.44221092 39.24434471 1.44221092 39.24434471 0.17811584 39.25224304 C-1.79124551 39.25243858 -3.76049797 39.20098805 -5.72888184 39.13894653 C-7.5445362 37.32329217 -6.85750083 34.82624692 -6.86782837 32.4100647 C-6.86580414 31.6090332 -6.86377991 30.80800171 -6.86169434 29.98269653 C-6.86265106 29.16522949 -6.86360779 28.34776245 -6.86459351 27.50552368 C-6.86527529 25.77379276 -6.86342113 24.04205929 -6.85925293 22.31033325 C-6.85390463 19.65028171 -6.85919796 16.99039903 -6.86560059 14.33035278 C-6.8649398 12.65196699 -6.86365864 10.97358131 -6.86169434 9.29519653 C-6.86371857 8.49416504 -6.8657428 7.69313354 -6.86782837 6.86782837 C-6.83941893 0.2212902 -6.64653817 0.02840944 0 0 Z " fill="#028DE5" transform="translate(244.7288818359375,448.8610534667969)"/>
<path d="M0 0 C0.80103149 0.00202423 1.60206299 0.00404846 2.42736816 0.00613403 C3.24483521 0.00517731 4.06230225 0.00422058 4.90454102 0.00323486 C6.63627194 0.00255308 8.3680054 0.00440724 10.09973145 0.00857544 C12.75978298 0.01392374 15.41966566 0.00863041 18.07971191 0.00222778 C19.75809771 0.00288857 21.43648339 0.00416973 23.11486816 0.00613403 C23.91589966 0.0041098 24.71693115 0.00208557 25.54223633 0 C31.15616738 0.02399575 31.15616738 0.02399575 32.27111816 1.13894653 C32.35973809 3.95058033 32.38634172 6.73752909 32.36877441 9.54910278 C32.36735947 10.39113754 32.36594452 11.2331723 32.36448669 12.10072327 C32.3588708 14.80099988 32.34631565 17.50119481 32.33361816 20.20144653 C32.32860521 22.02761721 32.32404195 23.85378919 32.31994629 25.67996216 C32.30889621 30.16632195 32.29162096 34.65262038 32.27111816 39.13894653 C26.87764828 39.16359503 21.48421091 39.18178184 16.09069824 39.19387817 C14.25442942 39.19891885 12.41816462 39.2057513 10.58190918 39.21438599 C7.94835415 39.22646326 5.314852 39.23217734 2.68127441 39.23660278 C1.44221092 39.24434471 1.44221092 39.24434471 0.17811584 39.25224304 C-1.79124551 39.25243858 -3.76049797 39.20098805 -5.72888184 39.13894653 C-7.5445362 37.32329217 -6.85750083 34.82624692 -6.86782837 32.4100647 C-6.86580414 31.6090332 -6.86377991 30.80800171 -6.86169434 29.98269653 C-6.86265106 29.16522949 -6.86360779 28.34776245 -6.86459351 27.50552368 C-6.86527529 25.77379276 -6.86342113 24.04205929 -6.85925293 22.31033325 C-6.85390463 19.65028171 -6.85919796 16.99039903 -6.86560059 14.33035278 C-6.8649398 12.65196699 -6.86365864 10.97358131 -6.86169434 9.29519653 C-6.86371857 8.49416504 -6.8657428 7.69313354 -6.86782837 6.86782837 C-6.83941893 0.2212902 -6.64653817 0.02840944 0 0 Z " fill="#048ADF" transform="translate(325.7288818359375,383.8610534667969)"/>
<path d="M0 0 C0.80103149 0.00202423 1.60206299 0.00404846 2.42736816 0.00613403 C3.24483521 0.00517731 4.06230225 0.00422058 4.90454102 0.00323486 C6.63627194 0.00255308 8.3680054 0.00440724 10.09973145 0.00857544 C12.75978298 0.01392374 15.41966566 0.00863041 18.07971191 0.00222778 C19.75809771 0.00288857 21.43648339 0.00416973 23.11486816 0.00613403 C23.91589966 0.0041098 24.71693115 0.00208557 25.54223633 0 C31.15616738 0.02399575 31.15616738 0.02399575 32.27111816 1.13894653 C32.35973809 3.95058033 32.38634172 6.73752909 32.36877441 9.54910278 C32.36735947 10.39113754 32.36594452 11.2331723 32.36448669 12.10072327 C32.3588708 14.80099988 32.34631565 17.50119481 32.33361816 20.20144653 C32.32860521 22.02761721 32.32404195 23.85378919 32.31994629 25.67996216 C32.30889621 30.16632195 32.29162096 34.65262038 32.27111816 39.13894653 C26.87764828 39.16359503 21.48421091 39.18178184 16.09069824 39.19387817 C14.25442942 39.19891885 12.41816462 39.2057513 10.58190918 39.21438599 C7.94835415 39.22646326 5.314852 39.23217734 2.68127441 39.23660278 C1.44221092 39.24434471 1.44221092 39.24434471 0.17811584 39.25224304 C-1.79124551 39.25243858 -3.76049797 39.20098805 -5.72888184 39.13894653 C-7.5445362 37.32329217 -6.85750083 34.82624692 -6.86782837 32.4100647 C-6.86580414 31.6090332 -6.86377991 30.80800171 -6.86169434 29.98269653 C-6.86265106 29.16522949 -6.86360779 28.34776245 -6.86459351 27.50552368 C-6.86527529 25.77379276 -6.86342113 24.04205929 -6.85925293 22.31033325 C-6.85390463 19.65028171 -6.85919796 16.99039903 -6.86560059 14.33035278 C-6.8649398 12.65196699 -6.86365864 10.97358131 -6.86169434 9.29519653 C-6.86371857 8.49416504 -6.8657428 7.69313354 -6.86782837 6.86782837 C-6.83941893 0.2212902 -6.64653817 0.02840944 0 0 Z " fill="#038DE5" transform="translate(244.7288818359375,383.8610534667969)"/>
<path d="M0 0 C0.80103149 0.00202423 1.60206299 0.00404846 2.42736816 0.00613403 C3.24483521 0.00517731 4.06230225 0.00422058 4.90454102 0.00323486 C6.63627194 0.00255308 8.3680054 0.00440724 10.09973145 0.00857544 C12.75978298 0.01392374 15.41966566 0.00863041 18.07971191 0.00222778 C19.75809771 0.00288857 21.43648339 0.00416973 23.11486816 0.00613403 C23.91589966 0.0041098 24.71693115 0.00208557 25.54223633 0 C31.15616738 0.02399575 31.15616738 0.02399575 32.27111816 1.13894653 C32.37211304 3.86618932 32.41082345 6.56757176 32.40393066 9.29519653 C32.40488739 10.11266357 32.40584412 10.93013062 32.40682983 11.77236938 C32.40751162 13.50410031 32.40565746 15.23583377 32.40148926 16.96755981 C32.39614095 19.62761135 32.40143428 22.28749403 32.40783691 24.94754028 C32.40717613 26.62592607 32.40589497 28.30431176 32.40393066 29.98269653 C32.4059549 30.78372803 32.40797913 31.58475952 32.4100647 32.4100647 C32.38606895 38.02399575 32.38606895 38.02399575 31.27111816 39.13894653 C28.54387538 39.23994141 25.84249293 39.27865182 23.11486816 39.27175903 C21.8886676 39.27319412 21.8886676 39.27319412 20.63769531 39.2746582 C18.90596439 39.27533999 17.17423092 39.27348583 15.44250488 39.26931763 C12.78245334 39.26396932 10.12257066 39.26926265 7.46252441 39.27566528 C5.78413862 39.2750045 4.10575294 39.27372334 2.42736816 39.27175903 C1.62633667 39.27378326 0.82530518 39.2758075 0 39.27789307 C-5.61393105 39.25389732 -5.61393105 39.25389732 -6.72888184 38.13894653 C-6.82987671 35.41170375 -6.86858713 32.7103213 -6.86169434 29.98269653 C-6.86265106 29.16522949 -6.86360779 28.34776245 -6.86459351 27.50552368 C-6.86527529 25.77379276 -6.86342113 24.04205929 -6.85925293 22.31033325 C-6.85390463 19.65028171 -6.85919796 16.99039903 -6.86560059 14.33035278 C-6.8649398 12.65196699 -6.86365864 10.97358131 -6.86169434 9.29519653 C-6.86371857 8.49416504 -6.8657428 7.69313354 -6.86782837 6.86782837 C-6.83941893 0.2212902 -6.64653817 0.02840944 0 0 Z " fill="#048DE1" transform="translate(502.7288818359375,464.8610534667969)"/>
<path d="M0 0 C0.80103149 0.00202423 1.60206299 0.00404846 2.42736816 0.00613403 C3.24483521 0.00517731 4.06230225 0.00422058 4.90454102 0.00323486 C6.63627194 0.00255308 8.3680054 0.00440724 10.09973145 0.00857544 C12.75978298 0.01392374 15.41966566 0.00863041 18.07971191 0.00222778 C19.75809771 0.00288857 21.43648339 0.00416973 23.11486816 0.00613403 C23.91589966 0.0041098 24.71693115 0.00208557 25.54223633 0 C31.15616738 0.02399575 31.15616738 0.02399575 32.27111816 1.13894653 C32.37211304 3.86618932 32.41082345 6.56757176 32.40393066 9.29519653 C32.40488739 10.11266357 32.40584412 10.93013062 32.40682983 11.77236938 C32.40751162 13.50410031 32.40565746 15.23583377 32.40148926 16.96755981 C32.39614095 19.62761135 32.40143428 22.28749403 32.40783691 24.94754028 C32.40717613 26.62592607 32.40589497 28.30431176 32.40393066 29.98269653 C32.4059549 30.78372803 32.40797913 31.58475952 32.4100647 32.4100647 C32.38606895 38.02399575 32.38606895 38.02399575 31.27111816 39.13894653 C28.54387538 39.23994141 25.84249293 39.27865182 23.11486816 39.27175903 C21.8886676 39.27319412 21.8886676 39.27319412 20.63769531 39.2746582 C18.90596439 39.27533999 17.17423092 39.27348583 15.44250488 39.26931763 C12.78245334 39.26396932 10.12257066 39.26926265 7.46252441 39.27566528 C5.78413862 39.2750045 4.10575294 39.27372334 2.42736816 39.27175903 C1.62633667 39.27378326 0.82530518 39.2758075 0 39.27789307 C-5.61393105 39.25389732 -5.61393105 39.25389732 -6.72888184 38.13894653 C-6.82987671 35.41170375 -6.86858713 32.7103213 -6.86169434 29.98269653 C-6.86265106 29.16522949 -6.86360779 28.34776245 -6.86459351 27.50552368 C-6.86527529 25.77379276 -6.86342113 24.04205929 -6.85925293 22.31033325 C-6.85390463 19.65028171 -6.85919796 16.99039903 -6.86560059 14.33035278 C-6.8649398 12.65196699 -6.86365864 10.97358131 -6.86169434 9.29519653 C-6.86371857 8.49416504 -6.8657428 7.69313354 -6.86782837 6.86782837 C-6.83941893 0.2212902 -6.64653817 0.02840944 0 0 Z " fill="#038CE2" transform="translate(444.7288818359375,464.8610534667969)"/>
<path d="M0 0 C4.86076468 3.32530817 8.37396406 7.2605285 10.77734375 12.6796875 C10.77734375 13.6696875 10.77734375 14.6596875 10.77734375 15.6796875 C11.84063904 15.64970924 11.84063904 15.64970924 12.92541504 15.61912537 C19.6330837 15.43816815 26.34006361 15.30146169 33.04962921 15.21337795 C36.49867042 15.16656579 39.94568185 15.10317799 43.39355469 15.00073242 C47.36497973 14.88348054 51.33560727 14.84043022 55.30859375 14.80078125 C56.53598267 14.75432968 57.76337158 14.70787811 59.0279541 14.66001892 C63.92929948 14.65714814 67.37863138 14.66406719 71.42553711 17.60256958 C73.59609322 19.89429609 75.35076987 21.86186432 76.77734375 24.6796875 C76.43800057 27.91190269 75.36001355 29.46278622 73.0546875 31.6953125 C72.51650391 32.22382812 71.97832031 32.75234375 71.42382812 33.296875 C70.85986328 33.83570313 70.29589844 34.37453125 69.71484375 34.9296875 C69.14701172 35.48398437 68.57917969 36.03828125 67.99414062 36.609375 C66.59521906 37.97302964 65.18715261 39.32729167 63.77734375 40.6796875 C59.10042067 39.20276442 59.10042067 39.20276442 57.46484375 36.5546875 C57.23796875 35.9359375 57.01109375 35.3171875 56.77734375 34.6796875 C56.25785156 35.19660156 55.73835937 35.71351563 55.203125 36.24609375 C54.50574219 36.90480469 53.80835938 37.56351563 53.08984375 38.2421875 C52.40535156 38.90347656 51.72085938 39.56476562 51.015625 40.24609375 C48.77734375 41.6796875 48.77734375 41.6796875 46.2578125 41.64453125 C43.77734375 40.6796875 43.77734375 40.6796875 42.04321289 38.6574707 C38.9913036 35.99358565 37.05446154 36.14068957 33.04296875 36.0703125 C31.74746094 36.03808594 30.45195313 36.00585938 29.1171875 35.97265625 C27.75391073 35.95791281 26.3906293 35.94359528 25.02734375 35.9296875 C23.64839999 35.90151936 22.269491 35.87159072 20.890625 35.83984375 C17.51947159 35.76912025 14.14901095 35.71643246 10.77734375 35.6796875 C10.48214844 36.6078125 10.18695312 37.5359375 9.8828125 38.4921875 C7.28259314 45.9896398 2.27363397 51.47575704 -4.8046875 54.9453125 C-14.4083762 58.75992452 -22.67581737 58.76678331 -32.22265625 54.6796875 C-40.23734615 50.11003304 -46.18875397 43.07083855 -48.75 34.16015625 C-50.41433433 25.42583973 -49.72765737 17.42067534 -45.22265625 9.6796875 C-34.06236896 -6.09083133 -16.66169698 -9.89745796 0 0 Z M-39.81640625 10.515625 C-43.99910774 16.95233784 -45.28463372 24.10265721 -44.22265625 31.6796875 C-42.00816721 39.32405362 -37.50815337 45.90122837 -30.66015625 50.0546875 C-27.59257064 51.50481888 -25.55538215 52.36228503 -22.22265625 52.6796875 C-21.23652344 52.77443359 -21.23652344 52.77443359 -20.23046875 52.87109375 C-12.46978931 53.28732396 -6.4800239 50.66651386 -0.41015625 45.9296875 C3.91380223 41.9869597 5.95646153 37.14233416 7.77734375 31.6796875 C12.54616251 31.58068615 17.31438105 31.50815822 22.08398438 31.45996094 C23.70583518 31.43986606 25.32761372 31.41258496 26.94921875 31.37792969 C29.28273355 31.3293148 31.61528932 31.30669861 33.94921875 31.2890625 C34.6722821 31.26841736 35.39534546 31.24777222 36.14031982 31.22650146 C39.72424346 31.22491007 41.44212337 31.40706614 44.26660156 33.70410156 C44.76514648 34.35604492 45.26369141 35.00798828 45.77734375 35.6796875 C48.38115094 34.56377013 49.83833911 33.61297383 51.77734375 31.4921875 C53.77734375 29.6796875 53.77734375 29.6796875 55.83984375 29.7421875 C57.77734375 30.6796875 57.77734375 30.6796875 59.27734375 32.3046875 C59.77234375 32.7584375 60.26734375 33.2121875 60.77734375 33.6796875 C64.1395178 33.28372899 65.75199884 32.04766956 68.02734375 29.6171875 C68.548125 29.06933594 69.06890625 28.52148438 69.60546875 27.95703125 C70.18554688 27.32474609 70.18554688 27.32474609 70.77734375 26.6796875 C69.47911272 23.78363367 68.29392279 21.64549856 65.77734375 19.6796875 C63.13599627 19.20615598 63.13599627 19.20615598 60.11254883 19.24731445 C58.95157181 19.22752029 57.79059479 19.20772614 56.59443665 19.18733215 C55.3412413 19.18094223 54.08804596 19.17455231 52.796875 19.16796875 C51.51374924 19.15001755 50.23062347 19.13206635 48.90861511 19.11357117 C45.50071316 19.06606013 42.09287746 19.03625843 38.68475342 19.01013184 C35.20571812 18.98033152 31.72691114 18.93379949 28.24804688 18.88867188 C21.4246092 18.80262667 14.60109553 18.73528699 7.77734375 18.6796875 C7.51614746 18.1340918 7.25495117 17.58849609 6.98583984 17.02636719 C6.63602051 16.30868164 6.28620117 15.59099609 5.92578125 14.8515625 C5.41023682 13.78566895 5.41023682 13.78566895 4.88427734 12.69824219 C1.68957364 6.87252313 -4.01547196 3.17140112 -9.91015625 0.4296875 C-21.99396552 -2.30626932 -32.01459362 0.6897572 -39.81640625 10.515625 Z " fill="#0F0F0F" transform="translate(654.22265625,624.3203125)"/>
<path d="M0 0 C0.77915771 0.00202423 1.55831543 0.00404846 2.36108398 0.00613403 C3.15635498 0.00517731 3.95162598 0.00422058 4.77099609 0.00323486 C6.45564859 0.0025531 8.1403037 0.00440711 9.82495117 0.00857544 C12.41257595 0.01392378 15.00002714 0.00863034 17.58764648 0.00222778 C19.22045937 0.00288857 20.85327215 0.00416973 22.48608398 0.00613403 C23.2652417 0.0041098 24.04439941 0.00208557 24.84716797 0 C30.30863294 0.02399549 30.30863294 0.02399549 31.42358398 1.13894653 C31.51220391 3.95058033 31.53880754 6.73752909 31.52124023 9.54910278 C31.51982529 10.39113754 31.51841034 11.2331723 31.51695251 12.10072327 C31.51133662 14.80099988 31.49878147 17.50119481 31.48608398 20.20144653 C31.48107103 22.02761721 31.47650777 23.85378919 31.47241211 25.67996216 C31.46136203 30.16632195 31.44408678 34.65262038 31.42358398 39.13894653 C26.17252956 39.16359581 20.92150853 39.18178221 15.67041016 39.19387817 C13.88264378 39.19891872 12.09488154 39.20575107 10.30712891 39.21438599 C7.7430723 39.22646384 5.17907001 39.23217748 2.61499023 39.23660278 C1.40873741 39.24434471 1.40873741 39.24434471 0.17811584 39.25224304 C-1.74043316 39.25243868 -3.6588697 39.20096636 -5.57641602 39.13894653 C-7.39207038 37.32329217 -6.70503501 34.82624692 -6.71536255 32.4100647 C-6.71333832 31.6090332 -6.71131409 30.80800171 -6.70922852 29.98269653 C-6.71018524 29.16522949 -6.71114197 28.34776245 -6.71212769 27.50552368 C-6.71280947 25.77379276 -6.71095531 24.04205929 -6.70678711 22.31033325 C-6.70143881 19.65028171 -6.70673214 16.99039903 -6.71313477 14.33035278 C-6.71247398 12.65196699 -6.71119282 10.97358131 -6.70922852 9.29519653 C-6.71125275 8.49416504 -6.71327698 7.69313354 -6.71536255 6.86782837 C-6.68736045 0.31658922 -6.56617466 0.02884914 0 0 Z " fill="#048DE4" transform="translate(561.576416015625,464.8610534667969)"/>
<path d="M0 0 C7.06530344 4.30495217 12.10522624 11.08938316 14.45703125 19 C15.51157062 28.0690386 14.52759223 35.97651407 9.37890625 43.80078125 C3.35483261 51.20405069 -4.20682507 54.70937512 -13.55859375 56.01171875 C-19.53978267 56.31496085 -24.0543268 54.56524497 -29.23046875 51.6875 C-29.86082031 51.34847656 -30.49117187 51.00945313 -31.140625 50.66015625 C-37.30247609 46.85470536 -40.97459816 40.45511178 -43.23046875 33.6875 C-44.16670192 23.35338201 -43.86616293 15.21700955 -37.23046875 6.6875 C-27.29245847 -4.59924025 -13.33724033 -6.15296015 0 0 Z M-33.73046875 10.75 C-34.60573733 12.03491463 -35.44197034 13.34758547 -36.23046875 14.6875 C-36.60558594 15.29980469 -36.98070312 15.91210938 -37.3671875 16.54296875 C-39.67315471 22.27136692 -39.01845556 30.23689338 -37.16796875 36.0625 C-34.0764117 42.87830485 -28.41270449 47.34072635 -21.55078125 50.02734375 C-14.86980338 51.92816069 -9.45382832 50.95542979 -3.30078125 47.87890625 C3.40484561 44.02000777 7.17532366 39.13348431 9.3515625 31.69921875 C10.81507485 24.6552107 9.79503705 19.27717903 6.31640625 12.984375 C2.27866187 6.98893638 -3.16855499 3.24546289 -10.23046875 1.6875 C-19.61873717 0.30007117 -27.8638446 3.13193223 -33.73046875 10.75 Z " fill="#0B0D0F" transform="translate(849.23046875,504.3125)"/>
<path d="M0 0 C0.66 0 1.32 0 2 0 C2.51046875 1.17755859 2.51046875 1.17755859 3.03125 2.37890625 C8.05320028 13.26425062 13.78827324 18.82155554 25 23 C25 23.66 25 24.32 25 25 C24.21496094 25.3403125 23.42992187 25.680625 22.62109375 26.03125 C11.73574938 31.05320028 6.17844446 36.78827324 2 48 C1.34 48 0.68 48 0 48 C-0.3403125 47.21496094 -0.680625 46.42992187 -1.03125 45.62109375 C-6.05320028 34.73574938 -11.78827324 29.17844446 -23 25 C-23 24.34 -23 23.68 -23 23 C-22.21496094 22.6596875 -21.42992187 22.319375 -20.62109375 21.96875 C-9.73574938 16.94679972 -4.17844446 11.21172676 0 0 Z " fill="#F0F0F0" transform="translate(967,944)"/>
<path d="M0 0 C6.67456054 4.35521518 12.67653223 9.47217515 15.0234375 17.3203125 C16.28935881 25.85542553 16.18404348 34.68957394 11.64453125 42.23828125 C6.92538677 48.29925476 1.17283056 52.74688684 -6.2265625 55.0078125 C-14.53076358 55.95147171 -20.61593243 55.50093107 -27.9765625 51.3203125 C-28.61722656 50.95808594 -29.25789062 50.59585938 -29.91796875 50.22265625 C-36.11265648 46.27571699 -39.70112713 40.21647845 -41.9765625 33.3203125 C-42.97072023 24.16359653 -42.71912974 15.88824334 -36.9765625 8.3203125 C-27.28743006 -2.25623581 -13.48913397 -7.17080356 0 0 Z M-32.9765625 11.3203125 C-37.37173993 16.86599226 -37.70962892 22.93937578 -37.48046875 29.84375 C-36.53199752 36.38746621 -33.74541289 41.01764611 -28.6796875 45.23046875 C-21.88824401 49.92455469 -16.20826926 51.25769272 -7.9765625 50.3203125 C-1.1639972 48.15002384 4.28837076 44.47146202 8.0234375 38.3203125 C11.00484501 32.02874912 12.46919881 25.56388967 10.1796875 18.84375 C6.92796246 11.57131089 2.32008231 6.5163754 -4.7890625 2.8828125 C-16.02784244 0.89949839 -25.06515003 2.76267079 -32.9765625 11.3203125 Z " fill="#121212" transform="translate(847.9765625,666.6796875)"/>
<path d="M0 0 C1.75 1.12109375 1.75 1.12109375 3.3125 2.3125 C4.364375 3.055 5.41625 3.7975 6.5 4.5625 C12.585125 10.5124 16.26884224 17.4242684 16.6875 26 C16.44070368 35.13146389 13.04360476 42.81509675 6.70703125 49.36328125 C0.1146071 54.72970809 -7.62981085 57.17259253 -16.08984375 56.734375 C-20.40099823 56.03421758 -23.92429038 54.48632374 -27.6875 52.3125 C-28.6465625 51.76916016 -28.6465625 51.76916016 -29.625 51.21484375 C-36.2576137 46.99798806 -39.5946051 40.75696389 -41.6875 33.3125 C-42.84215441 23.05430713 -41.52048054 15.40064782 -35.078125 7.28515625 C-33.38130421 5.4443392 -31.64415399 3.87203183 -29.6875 2.3125 C-28.88119141 1.66087891 -28.88119141 1.66087891 -28.05859375 0.99609375 C-20.81255885 -3.65628213 -7.69893977 -3.64843374 0 0 Z M-32.21484375 11.3359375 C-37.41070533 18.30969337 -37.65306839 24.88234518 -36.6875 33.3125 C-34.54263846 40.74007608 -30.38850577 45.55587555 -23.6875 49.3125 C-17.52626972 52.22196986 -10.60342672 52.64558144 -4.1171875 50.4375 C2.45058975 47.05342494 6.53894736 42.3866579 10.1875 36.0625 C12.28070629 29.08514569 12.33701117 22.79620706 9.375 16.0625 C5.60362767 9.31485947 -0.40038486 4.76831518 -7.6875 2.3125 C-17.26940605 0.78366156 -25.63220984 4.51070037 -32.21484375 11.3359375 Z " fill="#111111" transform="translate(847.6875,584.6875)"/>
<path d="M0 0 C1.02814316 0.00222061 2.05628632 0.00444122 3.11558533 0.00672913 C4.85727745 0.00684242 4.85727745 0.00684242 6.63415527 0.00695801 C8.52943214 0.01469994 8.52943214 0.01469994 10.46299744 0.02259827 C12.39193092 0.02472069 12.39193092 0.02472069 14.35983276 0.02688599 C17.78427561 0.03071034 21.20867628 0.0405399 24.63310242 0.05158997 C28.12522308 0.06180587 31.61735053 0.06638399 35.10948181 0.07142639 C41.96562072 0.08216225 48.82172459 0.09975838 55.67784119 0.12025452 C55.67784119 4.41025452 55.67784119 8.70025452 55.67784119 13.12025452 C48.1328553 13.14281001 40.58788188 13.1611722 33.04287052 13.17206669 C29.53975234 13.1772944 26.03665834 13.18439002 22.53355408 13.19569397 C18.51003278 13.20859657 14.48653704 13.21348363 10.46299744 13.21791077 C9.19947952 13.22307205 7.93596161 13.22823334 6.63415527 13.23355103 C5.47302719 13.23362656 4.31189911 13.23370209 3.11558533 13.23377991 C1.57337059 13.23711082 1.57337059 13.23711082 0 13.24050903 C-2.32215881 13.12025452 -2.32215881 13.12025452 -3.32215881 12.12025452 C-3.42067052 10.28909569 -3.4518851 8.45405518 -3.44715881 6.62025452 C-3.44973694 5.61994202 -3.45231506 4.61962952 -3.45497131 3.58900452 C-3.28106104 0.35631938 -3.22456513 0.16698622 0 0 Z " fill="#D6D7D6" transform="translate(591.3221588134766,731.8797454833984)"/>
<path d="M0 0 C0.80103149 0.00202423 1.60206299 0.00404846 2.42736816 0.00613403 C3.24483521 0.00517731 4.06230225 0.00422058 4.90454102 0.00323486 C6.63627194 0.00255308 8.3680054 0.00440724 10.09973145 0.00857544 C12.75978298 0.01392374 15.41966566 0.00863041 18.07971191 0.00222778 C19.75809771 0.00288857 21.43648339 0.00416973 23.11486816 0.00613403 C23.91589966 0.0041098 24.71693115 0.00208557 25.54223633 0 C31.15616738 0.02399575 31.15616738 0.02399575 32.27111816 1.13894653 C32.37215071 3.93888251 32.41081904 6.71363297 32.40393066 9.51394653 C32.40488739 10.35360962 32.40584412 11.19327271 32.40682983 12.05838013 C32.40751164 13.83718948 32.40565733 15.61600131 32.40148926 17.39480591 C32.39614099 20.12728429 32.40143422 22.8595983 32.40783691 25.59207153 C32.40717613 27.31603023 32.40589497 29.03998883 32.40393066 30.76394653 C32.4059549 31.58685181 32.40797913 32.40975708 32.4100647 33.25759888 C32.38606871 39.02399599 32.38606871 39.02399599 31.27111816 40.13894653 C28.54387538 40.23994141 25.84249293 40.27865182 23.11486816 40.27175903 C21.8886676 40.27319412 21.8886676 40.27319412 20.63769531 40.2746582 C18.90596439 40.27533999 17.17423092 40.27348583 15.44250488 40.26931763 C12.78245334 40.26396932 10.12257066 40.26926265 7.46252441 40.27566528 C5.78413862 40.2750045 4.10575294 40.27372334 2.42736816 40.27175903 C1.62633667 40.27378326 0.82530518 40.2758075 0 40.27789307 C-5.61393105 40.25389732 -5.61393105 40.25389732 -6.72888184 39.13894653 C-6.82991438 36.33901056 -6.86858271 33.5642601 -6.86169434 30.76394653 C-6.86265106 29.92428345 -6.86360779 29.08462036 -6.86459351 28.21951294 C-6.86527531 26.44070359 -6.863421 24.66189176 -6.85925293 22.88308716 C-6.85390466 20.15060877 -6.85919789 17.41829477 -6.86560059 14.68582153 C-6.8649398 12.96186283 -6.86365864 11.23790424 -6.86169434 9.51394653 C-6.86371857 8.69104126 -6.8657428 7.86813599 -6.86782837 7.02029419 C-6.83984235 0.29506658 -6.73962269 0.02880731 0 0 Z M-1.72888184 5.13894653 C-1.72888184 15.03894653 -1.72888184 24.93894653 -1.72888184 35.13894653 C7.84111816 35.13894653 17.41111816 35.13894653 27.27111816 35.13894653 C27.27111816 25.23894653 27.27111816 15.33894653 27.27111816 5.13894653 C17.70111816 5.13894653 8.13111816 5.13894653 -1.72888184 5.13894653 Z " fill="#0E0E0F" transform="translate(325.7288818359375,513.8610534667969)"/>
<path d="M0 0 C0.77602066 0.00202423 1.55204132 0.00404846 2.35157776 0.00613403 C3.14447708 0.00517731 3.9373764 0.00422058 4.75430298 0.00323486 C6.43475931 0.00255302 8.11521826 0.00440757 9.79566956 0.00857544 C12.37230846 0.01391663 14.94877249 0.00863425 17.52540588 0.00222778 C19.15496356 0.0028887 20.78452113 0.00417015 22.41407776 0.00613403 C23.18807419 0.0041098 23.96207062 0.00208557 24.75952148 0 C30.21932235 0.0239907 30.21932235 0.0239907 32.44923401 1.13894653 C32.4738825 6.53241641 32.49206932 11.92585379 32.50416565 17.31936646 C32.50920632 19.15563528 32.51603878 20.99190007 32.52467346 22.82815552 C32.53675073 25.46171055 32.54246482 28.0952127 32.54689026 30.72879028 C32.55205154 31.55483261 32.55721283 32.38087494 32.56253052 33.23194885 C32.56272605 35.20131021 32.51127553 37.17056267 32.44923401 39.13894653 C30.63357965 40.9546009 28.13653439 40.26756553 25.72035217 40.27789307 C24.91932068 40.27586884 24.11828918 40.2738446 23.29298401 40.27175903 C22.06678345 40.27319412 22.06678345 40.27319412 20.81581116 40.2746582 C19.08408023 40.27533999 17.35234677 40.27348583 15.62062073 40.26931763 C12.96056919 40.26396932 10.30068651 40.26926265 7.64064026 40.27566528 C5.96225447 40.2750045 4.28386878 40.27372334 2.60548401 40.27175903 C1.80445251 40.27378326 1.00342102 40.2758075 0.17811584 40.27789307 C-5.4358152 40.25389732 -5.4358152 40.25389732 -6.55076599 39.13894653 C-6.65179854 36.33901056 -6.69046687 33.5642601 -6.68357849 30.76394653 C-6.68453522 29.92428345 -6.68549194 29.08462036 -6.68647766 28.21951294 C-6.68715947 26.44070359 -6.68530516 24.66189176 -6.68113708 22.88308716 C-6.67578882 20.15060877 -6.68108205 17.41829477 -6.68748474 14.68582153 C-6.68682396 12.96186283 -6.6855428 11.23790424 -6.68357849 9.51394653 C-6.68560272 8.69104126 -6.68762695 7.86813599 -6.68971252 7.02029419 C-6.66220042 0.40895135 -6.64326172 0.02931973 0 0 Z M-1.55076599 5.13894653 C-1.55076599 15.03894653 -1.55076599 24.93894653 -1.55076599 35.13894653 C8.01923401 35.13894653 17.58923401 35.13894653 27.44923401 35.13894653 C27.44923401 25.23894653 27.44923401 15.33894653 27.44923401 5.13894653 C17.87923401 5.13894653 8.30923401 5.13894653 -1.55076599 5.13894653 Z " fill="#0E0F0F" transform="translate(444.55076599121094,528.8610534667969)"/>
<path d="M0 0 C0.80103149 0.00202423 1.60206299 0.00404846 2.42736816 0.00613403 C3.24483521 0.00517731 4.06230225 0.00422058 4.90454102 0.00323486 C6.63627194 0.00255308 8.3680054 0.00440724 10.09973145 0.00857544 C12.75978298 0.01392374 15.41966566 0.00863041 18.07971191 0.00222778 C19.75809771 0.00288857 21.43648339 0.00416973 23.11486816 0.00613403 C23.91589966 0.0041098 24.71693115 0.00208557 25.54223633 0 C31.15616738 0.02399575 31.15616738 0.02399575 32.27111816 1.13894653 C32.35973809 3.95058033 32.38634172 6.73752909 32.36877441 9.54910278 C32.36735947 10.39113754 32.36594452 11.2331723 32.36448669 12.10072327 C32.3588708 14.80099988 32.34631565 17.50119481 32.33361816 20.20144653 C32.32860521 22.02761721 32.32404195 23.85378919 32.31994629 25.67996216 C32.30889621 30.16632195 32.29162096 34.65262038 32.27111816 39.13894653 C26.87764828 39.16359503 21.48421091 39.18178184 16.09069824 39.19387817 C14.25442942 39.19891885 12.41816462 39.2057513 10.58190918 39.21438599 C7.94835415 39.22646326 5.314852 39.23217734 2.68127441 39.23660278 C1.44221092 39.24434471 1.44221092 39.24434471 0.17811584 39.25224304 C-1.79124551 39.25243858 -3.76049797 39.20098805 -5.72888184 39.13894653 C-7.5445362 37.32329217 -6.85750083 34.82624692 -6.86782837 32.4100647 C-6.86580414 31.6090332 -6.86377991 30.80800171 -6.86169434 29.98269653 C-6.86265106 29.16522949 -6.86360779 28.34776245 -6.86459351 27.50552368 C-6.86527529 25.77379276 -6.86342113 24.04205929 -6.85925293 22.31033325 C-6.85390463 19.65028171 -6.85919796 16.99039903 -6.86560059 14.33035278 C-6.8649398 12.65196699 -6.86365864 10.97358131 -6.86169434 9.29519653 C-6.86371857 8.49416504 -6.8657428 7.69313354 -6.86782837 6.86782837 C-6.83941893 0.2212902 -6.64653817 0.02840944 0 0 Z M-1.72888184 5.13894653 C-1.72888184 14.70894653 -1.72888184 24.27894653 -1.72888184 34.13894653 C7.84111816 34.13894653 17.41111816 34.13894653 27.27111816 34.13894653 C27.27111816 24.56894653 27.27111816 14.99894653 27.27111816 5.13894653 C17.70111816 5.13894653 8.13111816 5.13894653 -1.72888184 5.13894653 Z " fill="#080B0D" transform="translate(244.7288818359375,448.8610534667969)"/>
<path d="M0 0 C0.80103149 0.00202423 1.60206299 0.00404846 2.42736816 0.00613403 C3.24483521 0.00517731 4.06230225 0.00422058 4.90454102 0.00323486 C6.63627194 0.00255308 8.3680054 0.00440724 10.09973145 0.00857544 C12.75978298 0.01392374 15.41966566 0.00863041 18.07971191 0.00222778 C19.75809771 0.00288857 21.43648339 0.00416973 23.11486816 0.00613403 C23.91589966 0.0041098 24.71693115 0.00208557 25.54223633 0 C31.15616738 0.02399575 31.15616738 0.02399575 32.27111816 1.13894653 C32.35973809 3.95058033 32.38634172 6.73752909 32.36877441 9.54910278 C32.36735947 10.39113754 32.36594452 11.2331723 32.36448669 12.10072327 C32.3588708 14.80099988 32.34631565 17.50119481 32.33361816 20.20144653 C32.32860521 22.02761721 32.32404195 23.85378919 32.31994629 25.67996216 C32.30889621 30.16632195 32.29162096 34.65262038 32.27111816 39.13894653 C26.87764828 39.16359503 21.48421091 39.18178184 16.09069824 39.19387817 C14.25442942 39.19891885 12.41816462 39.2057513 10.58190918 39.21438599 C7.94835415 39.22646326 5.314852 39.23217734 2.68127441 39.23660278 C1.44221092 39.24434471 1.44221092 39.24434471 0.17811584 39.25224304 C-1.79124551 39.25243858 -3.76049797 39.20098805 -5.72888184 39.13894653 C-7.5445362 37.32329217 -6.85750083 34.82624692 -6.86782837 32.4100647 C-6.86580414 31.6090332 -6.86377991 30.80800171 -6.86169434 29.98269653 C-6.86265106 29.16522949 -6.86360779 28.34776245 -6.86459351 27.50552368 C-6.86527529 25.77379276 -6.86342113 24.04205929 -6.85925293 22.31033325 C-6.85390463 19.65028171 -6.85919796 16.99039903 -6.86560059 14.33035278 C-6.8649398 12.65196699 -6.86365864 10.97358131 -6.86169434 9.29519653 C-6.86371857 8.49416504 -6.8657428 7.69313354 -6.86782837 6.86782837 C-6.83941893 0.2212902 -6.64653817 0.02840944 0 0 Z M-1.72888184 5.13894653 C-1.72888184 14.70894653 -1.72888184 24.27894653 -1.72888184 34.13894653 C7.84111816 34.13894653 17.41111816 34.13894653 27.27111816 34.13894653 C27.27111816 24.56894653 27.27111816 14.99894653 27.27111816 5.13894653 C17.70111816 5.13894653 8.13111816 5.13894653 -1.72888184 5.13894653 Z " fill="#0A0C0E" transform="translate(244.7288818359375,383.8610534667969)"/>
<path d="M0 0 C0.80103149 0.00202423 1.60206299 0.00404846 2.42736816 0.00613403 C3.24483521 0.00517731 4.06230225 0.00422058 4.90454102 0.00323486 C6.63627194 0.00255308 8.3680054 0.00440724 10.09973145 0.00857544 C12.75978298 0.01392374 15.41966566 0.00863041 18.07971191 0.00222778 C19.75809771 0.00288857 21.43648339 0.00416973 23.11486816 0.00613403 C23.91589966 0.0041098 24.71693115 0.00208557 25.54223633 0 C31.15616738 0.02399575 31.15616738 0.02399575 32.27111816 1.13894653 C32.37211304 3.86618932 32.41082345 6.56757176 32.40393066 9.29519653 C32.40488739 10.11266357 32.40584412 10.93013062 32.40682983 11.77236938 C32.40751162 13.50410031 32.40565746 15.23583377 32.40148926 16.96755981 C32.39614095 19.62761135 32.40143428 22.28749403 32.40783691 24.94754028 C32.40717613 26.62592607 32.40589497 28.30431176 32.40393066 29.98269653 C32.4059549 30.78372803 32.40797913 31.58475952 32.4100647 32.4100647 C32.38606895 38.02399575 32.38606895 38.02399575 31.27111816 39.13894653 C28.54387538 39.23994141 25.84249293 39.27865182 23.11486816 39.27175903 C21.8886676 39.27319412 21.8886676 39.27319412 20.63769531 39.2746582 C18.90596439 39.27533999 17.17423092 39.27348583 15.44250488 39.26931763 C12.78245334 39.26396932 10.12257066 39.26926265 7.46252441 39.27566528 C5.78413862 39.2750045 4.10575294 39.27372334 2.42736816 39.27175903 C1.62633667 39.27378326 0.82530518 39.2758075 0 39.27789307 C-5.61393105 39.25389732 -5.61393105 39.25389732 -6.72888184 38.13894653 C-6.82987671 35.41170375 -6.86858713 32.7103213 -6.86169434 29.98269653 C-6.86265106 29.16522949 -6.86360779 28.34776245 -6.86459351 27.50552368 C-6.86527529 25.77379276 -6.86342113 24.04205929 -6.85925293 22.31033325 C-6.85390463 19.65028171 -6.85919796 16.99039903 -6.86560059 14.33035278 C-6.8649398 12.65196699 -6.86365864 10.97358131 -6.86169434 9.29519653 C-6.86371857 8.49416504 -6.8657428 7.69313354 -6.86782837 6.86782837 C-6.83941893 0.2212902 -6.64653817 0.02840944 0 0 Z M-1.72888184 5.13894653 C-1.72888184 14.70894653 -1.72888184 24.27894653 -1.72888184 34.13894653 C7.84111816 34.13894653 17.41111816 34.13894653 27.27111816 34.13894653 C27.27111816 24.56894653 27.27111816 14.99894653 27.27111816 5.13894653 C17.70111816 5.13894653 8.13111816 5.13894653 -1.72888184 5.13894653 Z " fill="#08090A" transform="translate(502.7288818359375,464.8610534667969)"/>
<path d="M0 0 C0.80103149 0.00202423 1.60206299 0.00404846 2.42736816 0.00613403 C3.24483521 0.00517731 4.06230225 0.00422058 4.90454102 0.00323486 C6.63627194 0.00255308 8.3680054 0.00440724 10.09973145 0.00857544 C12.75978298 0.01392374 15.41966566 0.00863041 18.07971191 0.00222778 C19.75809771 0.00288857 21.43648339 0.00416973 23.11486816 0.00613403 C23.91589966 0.0041098 24.71693115 0.00208557 25.54223633 0 C31.15616738 0.02399575 31.15616738 0.02399575 32.27111816 1.13894653 C32.37211304 3.86618932 32.41082345 6.56757176 32.40393066 9.29519653 C32.40488739 10.11266357 32.40584412 10.93013062 32.40682983 11.77236938 C32.40751162 13.50410031 32.40565746 15.23583377 32.40148926 16.96755981 C32.39614095 19.62761135 32.40143428 22.28749403 32.40783691 24.94754028 C32.40717613 26.62592607 32.40589497 28.30431176 32.40393066 29.98269653 C32.4059549 30.78372803 32.40797913 31.58475952 32.4100647 32.4100647 C32.38606895 38.02399575 32.38606895 38.02399575 31.27111816 39.13894653 C28.54387538 39.23994141 25.84249293 39.27865182 23.11486816 39.27175903 C21.8886676 39.27319412 21.8886676 39.27319412 20.63769531 39.2746582 C18.90596439 39.27533999 17.17423092 39.27348583 15.44250488 39.26931763 C12.78245334 39.26396932 10.12257066 39.26926265 7.46252441 39.27566528 C5.78413862 39.2750045 4.10575294 39.27372334 2.42736816 39.27175903 C1.62633667 39.27378326 0.82530518 39.2758075 0 39.27789307 C-5.61393105 39.25389732 -5.61393105 39.25389732 -6.72888184 38.13894653 C-6.82987671 35.41170375 -6.86858713 32.7103213 -6.86169434 29.98269653 C-6.86265106 29.16522949 -6.86360779 28.34776245 -6.86459351 27.50552368 C-6.86527529 25.77379276 -6.86342113 24.04205929 -6.85925293 22.31033325 C-6.85390463 19.65028171 -6.85919796 16.99039903 -6.86560059 14.33035278 C-6.8649398 12.65196699 -6.86365864 10.97358131 -6.86169434 9.29519653 C-6.86371857 8.49416504 -6.8657428 7.69313354 -6.86782837 6.86782837 C-6.83941893 0.2212902 -6.64653817 0.02840944 0 0 Z M-1.72888184 5.13894653 C-1.72888184 14.70894653 -1.72888184 24.27894653 -1.72888184 34.13894653 C7.84111816 34.13894653 17.41111816 34.13894653 27.27111816 34.13894653 C27.27111816 24.56894653 27.27111816 14.99894653 27.27111816 5.13894653 C17.70111816 5.13894653 8.13111816 5.13894653 -1.72888184 5.13894653 Z " fill="#080A0C" transform="translate(444.7288818359375,464.8610534667969)"/>
<path d="M0 0 C0.77915771 0.00202423 1.55831543 0.00404846 2.36108398 0.00613403 C3.15635498 0.00517731 3.95162598 0.00422058 4.77099609 0.00323486 C6.45564859 0.0025531 8.1403037 0.00440711 9.82495117 0.00857544 C12.41257595 0.01392378 15.00002714 0.00863034 17.58764648 0.00222778 C19.22045937 0.00288857 20.85327215 0.00416973 22.48608398 0.00613403 C23.2652417 0.0041098 24.04439941 0.00208557 24.84716797 0 C30.30863294 0.02399549 30.30863294 0.02399549 31.42358398 1.13894653 C31.51220391 3.95058033 31.53880754 6.73752909 31.52124023 9.54910278 C31.51982529 10.39113754 31.51841034 11.2331723 31.51695251 12.10072327 C31.51133662 14.80099988 31.49878147 17.50119481 31.48608398 20.20144653 C31.48107103 22.02761721 31.47650777 23.85378919 31.47241211 25.67996216 C31.46136203 30.16632195 31.44408678 34.65262038 31.42358398 39.13894653 C26.17252956 39.16359581 20.92150853 39.18178221 15.67041016 39.19387817 C13.88264378 39.19891872 12.09488154 39.20575107 10.30712891 39.21438599 C7.7430723 39.22646384 5.17907001 39.23217748 2.61499023 39.23660278 C1.40873741 39.24434471 1.40873741 39.24434471 0.17811584 39.25224304 C-1.74043316 39.25243868 -3.6588697 39.20096636 -5.57641602 39.13894653 C-7.39207038 37.32329217 -6.70503501 34.82624692 -6.71536255 32.4100647 C-6.71333832 31.6090332 -6.71131409 30.80800171 -6.70922852 29.98269653 C-6.71018524 29.16522949 -6.71114197 28.34776245 -6.71212769 27.50552368 C-6.71280947 25.77379276 -6.71095531 24.04205929 -6.70678711 22.31033325 C-6.70143881 19.65028171 -6.70673214 16.99039903 -6.71313477 14.33035278 C-6.71247398 12.65196699 -6.71119282 10.97358131 -6.70922852 9.29519653 C-6.71125275 8.49416504 -6.71327698 7.69313354 -6.71536255 6.86782837 C-6.68736045 0.31658922 -6.56617466 0.02884914 0 0 Z M-1.57641602 5.13894653 C-1.57641602 14.70894653 -1.57641602 24.27894653 -1.57641602 34.13894653 C7.66358398 34.13894653 16.90358398 34.13894653 26.42358398 34.13894653 C26.42358398 24.56894653 26.42358398 14.99894653 26.42358398 5.13894653 C17.18358398 5.13894653 7.94358398 5.13894653 -1.57641602 5.13894653 Z " fill="#04090C" transform="translate(561.576416015625,464.8610534667969)"/>
<path d="M0 0 C12.87 0 25.74 0 39 0 C39.020625 6.249375 39.04125 12.49875 39.0625 18.9375 C39.071604 20.91226318 39.08070801 22.88702637 39.09008789 24.92163086 C39.09300705 26.47770113 39.09555561 28.03377216 39.09765625 29.58984375 C39.10277222 30.40521606 39.10788818 31.22058838 39.11315918 32.06066895 C39.1134694 34.04080523 39.06238096 36.02084654 39 38 C37.18434564 39.81565436 34.68730038 39.12861899 32.27111816 39.13894653 C31.47008667 39.1369223 30.66905518 39.13489807 29.84375 39.1328125 C28.61754944 39.13424759 28.61754944 39.13424759 27.36657715 39.13571167 C25.63484622 39.13639345 23.90311276 39.13453929 22.17138672 39.13037109 C19.51133518 39.12502279 16.8514525 39.13031612 14.19140625 39.13671875 C12.51302046 39.13605797 10.83463477 39.1347768 9.15625 39.1328125 C8.35521851 39.13483673 7.55418701 39.13686096 6.72888184 39.13894653 C1.11495079 39.11495079 1.11495079 39.11495079 0 38 C-0.0886126 35.18859849 -0.11529584 32.40120576 -0.09765625 29.58984375 C-0.09664917 28.84383911 -0.09564209 28.09783447 -0.09460449 27.32922363 C-0.08935689 24.53196687 -0.07539573 21.73473196 -0.0625 18.9375 C-0.041875 12.688125 -0.02125 6.43875 0 0 Z M5 4 C5 13.9 5 23.8 5 34 C14.57 34 24.14 34 34 34 C34 24.1 34 14.2 34 4 C24.43 4 14.86 4 5 4 Z " fill="#09090A" transform="translate(238,515)"/>
<path d="M0 0 C0.80103149 0.00202423 1.60206299 0.00404846 2.42736816 0.00613403 C3.24483521 0.00517731 4.06230225 0.00422058 4.90454102 0.00323486 C6.63627194 0.00255308 8.3680054 0.00440724 10.09973145 0.00857544 C12.75978298 0.01392374 15.41966566 0.00863041 18.07971191 0.00222778 C19.75809771 0.00288857 21.43648339 0.00416973 23.11486816 0.00613403 C23.91589966 0.0041098 24.71693115 0.00208557 25.54223633 0 C31.15616738 0.02399575 31.15616738 0.02399575 32.27111816 1.13894653 C32.35973809 3.95058033 32.38634172 6.73752909 32.36877441 9.54910278 C32.36735947 10.39113754 32.36594452 11.2331723 32.36448669 12.10072327 C32.3588708 14.80099988 32.34631565 17.50119481 32.33361816 20.20144653 C32.32860521 22.02761721 32.32404195 23.85378919 32.31994629 25.67996216 C32.30889621 30.16632195 32.29162096 34.65262038 32.27111816 39.13894653 C26.87764828 39.16359503 21.48421091 39.18178184 16.09069824 39.19387817 C14.25442942 39.19891885 12.41816462 39.2057513 10.58190918 39.21438599 C7.94835415 39.22646326 5.314852 39.23217734 2.68127441 39.23660278 C1.44221092 39.24434471 1.44221092 39.24434471 0.17811584 39.25224304 C-1.79124551 39.25243858 -3.76049797 39.20098805 -5.72888184 39.13894653 C-7.5445362 37.32329217 -6.85750083 34.82624692 -6.86782837 32.4100647 C-6.86580414 31.6090332 -6.86377991 30.80800171 -6.86169434 29.98269653 C-6.86265106 29.16522949 -6.86360779 28.34776245 -6.86459351 27.50552368 C-6.86527529 25.77379276 -6.86342113 24.04205929 -6.85925293 22.31033325 C-6.85390463 19.65028171 -6.85919796 16.99039903 -6.86560059 14.33035278 C-6.8649398 12.65196699 -6.86365864 10.97358131 -6.86169434 9.29519653 C-6.86371857 8.49416504 -6.8657428 7.69313354 -6.86782837 6.86782837 C-6.83941893 0.2212902 -6.64653817 0.02840944 0 0 Z M-1.72888184 5.13894653 C-1.72888184 15.03894653 -1.72888184 24.93894653 -1.72888184 35.13894653 C7.84111816 35.13894653 17.41111816 35.13894653 27.27111816 35.13894653 C27.27111816 25.23894653 27.27111816 15.33894653 27.27111816 5.13894653 C17.70111816 5.13894653 8.13111816 5.13894653 -1.72888184 5.13894653 Z " fill="#090A0B" transform="translate(325.7288818359375,448.8610534667969)"/>
<path d="M0 0 C0.80103149 0.00202423 1.60206299 0.00404846 2.42736816 0.00613403 C3.24483521 0.00517731 4.06230225 0.00422058 4.90454102 0.00323486 C6.63627194 0.00255308 8.3680054 0.00440724 10.09973145 0.00857544 C12.75978298 0.01392374 15.41966566 0.00863041 18.07971191 0.00222778 C19.75809771 0.00288857 21.43648339 0.00416973 23.11486816 0.00613403 C23.91589966 0.0041098 24.71693115 0.00208557 25.54223633 0 C31.15616738 0.02399575 31.15616738 0.02399575 32.27111816 1.13894653 C32.35973809 3.95058033 32.38634172 6.73752909 32.36877441 9.54910278 C32.36735947 10.39113754 32.36594452 11.2331723 32.36448669 12.10072327 C32.3588708 14.80099988 32.34631565 17.50119481 32.33361816 20.20144653 C32.32860521 22.02761721 32.32404195 23.85378919 32.31994629 25.67996216 C32.30889621 30.16632195 32.29162096 34.65262038 32.27111816 39.13894653 C26.87764828 39.16359503 21.48421091 39.18178184 16.09069824 39.19387817 C14.25442942 39.19891885 12.41816462 39.2057513 10.58190918 39.21438599 C7.94835415 39.22646326 5.314852 39.23217734 2.68127441 39.23660278 C1.44221092 39.24434471 1.44221092 39.24434471 0.17811584 39.25224304 C-1.79124551 39.25243858 -3.76049797 39.20098805 -5.72888184 39.13894653 C-7.5445362 37.32329217 -6.85750083 34.82624692 -6.86782837 32.4100647 C-6.86580414 31.6090332 -6.86377991 30.80800171 -6.86169434 29.98269653 C-6.86265106 29.16522949 -6.86360779 28.34776245 -6.86459351 27.50552368 C-6.86527529 25.77379276 -6.86342113 24.04205929 -6.85925293 22.31033325 C-6.85390463 19.65028171 -6.85919796 16.99039903 -6.86560059 14.33035278 C-6.8649398 12.65196699 -6.86365864 10.97358131 -6.86169434 9.29519653 C-6.86371857 8.49416504 -6.8657428 7.69313354 -6.86782837 6.86782837 C-6.83941893 0.2212902 -6.64653817 0.02840944 0 0 Z M-1.72888184 5.13894653 C-1.72888184 15.03894653 -1.72888184 24.93894653 -1.72888184 35.13894653 C7.84111816 35.13894653 17.41111816 35.13894653 27.27111816 35.13894653 C27.27111816 25.23894653 27.27111816 15.33894653 27.27111816 5.13894653 C17.70111816 5.13894653 8.13111816 5.13894653 -1.72888184 5.13894653 Z " fill="#0B0C0D" transform="translate(325.7288818359375,383.8610534667969)"/>
<path d="M0 0 C4.11092959 1.77517414 6.73298981 4.13768634 9 8 C9.8724952 12.76787779 9.4529713 16.11023495 7.25 20.4375 C4.55382446 23.50814437 2.65255719 24.7689107 -1.40234375 25.3359375 C-5.64465711 25.40130442 -8.26810834 25.4269368 -12 23.25 C-15.75234317 19.02861394 -16.39523957 15.71177502 -16.25 10.18359375 C-15.76812473 5.97471443 -13.99323272 3.82296425 -10.8125 1.1875 C-7.08533241 -0.38619298 -3.9892011 -0.59189366 0 0 Z " fill="#121211" transform="translate(632,638)"/>
<path d="M0 0 C2.64 0 5.28 0 8 0 C8 3.63 8 7.26 8 11 C17.9 11 27.8 11 38 11 C38 13.64 38 16.28 38 19 C25.46 19 12.92 19 0 19 C0 12.73 0 6.46 0 0 Z " fill="#070707" transform="translate(677,588)"/>
<path d="M0 0 C0.33 0.66 0.66 1.32 1 2 C3.02463255 2.65213292 3.02463255 2.65213292 5 3 C5.33 4.65 5.66 6.3 6 8 C6.70886353 7.9800145 7.41772705 7.96002899 8.14807129 7.93943787 C14.85573995 7.75848065 21.56271986 7.62177419 28.27228546 7.53369045 C31.72132667 7.48687829 35.1683381 7.42349049 38.61621094 7.32104492 C42.58763598 7.20379304 46.55826352 7.16074272 50.53125 7.12109375 C51.75863892 7.07464218 52.98602783 7.02819061 54.25061035 6.98033142 C59.15195573 6.97746064 62.60128763 6.98437969 66.64819336 9.92288208 C68.81874947 12.21460859 70.57342612 14.18217682 72 17 C71.8223877 19.21531677 71.8223877 19.21531677 71 21 C68.9375 22.25 68.9375 22.25 67 23 C66.31640625 21.27473958 65.6328125 19.54947917 64.94921875 17.82421875 C63.83112361 15.67545154 62.91486681 14.502227 61 13 C58.39120451 12.58754951 58.39120451 12.58754951 55.41455078 12.71044922 C54.26971222 12.71970428 53.12487366 12.72895935 51.94534302 12.73849487 C50.08907791 12.77126022 50.08907791 12.77126022 48.1953125 12.8046875 C45.58463952 12.81165713 42.97396118 12.81680909 40.36328125 12.8203125 C36.23924063 12.8374197 32.11618099 12.8719693 27.99267578 12.94140625 C24.01824855 13.00631573 20.04527753 12.99951344 16.0703125 12.9921875 C14.22012009 13.04317093 14.22012009 13.04317093 12.33255005 13.09518433 C8.98378941 13.06708878 6.20507141 12.97533582 3 12 C0.05852799 8.93369346 -2 5.32841253 -2 1 C-1.34 0.67 -0.68 0.34 0 0 Z " fill="#070606" transform="translate(659,632)"/>
<path d="M0 0 C0.99 1.32 1.98 2.64 3 4 C2.06409496 5.1055189 1.12620142 6.20935453 0.1875 7.3125 C-0.33457031 7.92738281 -0.85664062 8.54226563 -1.39453125 9.17578125 C-2.87172469 10.85424679 -4.40039131 12.43882034 -6 14 C-10.71346154 12.51153846 -10.71346154 12.51153846 -12.1640625 9.921875 C-12.43992187 9.28765625 -12.71578125 8.6534375 -13 8 C-13.51949219 8.51691406 -14.03898438 9.03382813 -14.57421875 9.56640625 C-15.27160156 10.22511719 -15.96898437 10.88382813 -16.6875 11.5625 C-17.37199219 12.22378906 -18.05648437 12.88507812 -18.76171875 13.56640625 C-21 15 -21 15 -23.51953125 14.96484375 C-26 14 -26 14 -27.74780273 11.9777832 C-30.74172854 9.34864576 -32.57072511 9.46235045 -36.515625 9.390625 C-37.76601563 9.35839844 -39.01640625 9.32617188 -40.3046875 9.29296875 C-41.60664062 9.27878906 -42.90859375 9.26460937 -44.25 9.25 C-45.56742188 9.22035156 -46.88484375 9.19070313 -48.2421875 9.16015625 C-51.49485343 9.08944612 -54.74680193 9.03675214 -58 9 C-58 8.67 -58 8.34 -58 8 C-48.76 7.67 -39.52 7.34 -30 7 C-30 6.67 -30 6.34 -30 6 C-40.56 5.67 -51.12 5.34 -62 5 C-62 4.67 -62 4.34 -62 4 C-57.23118124 3.90099865 -52.4629627 3.82847072 -47.69335938 3.78027344 C-46.07150857 3.76017856 -44.44973003 3.73289746 -42.828125 3.69824219 C-40.4946102 3.6496273 -38.16205443 3.62701111 -35.828125 3.609375 C-34.74352997 3.57840729 -34.74352997 3.57840729 -33.63702393 3.54681396 C-30.05310029 3.54522257 -28.33522038 3.72737864 -25.51074219 6.02441406 C-25.01219727 6.67635742 -24.51365234 7.32830078 -24 8 C-21.39619281 6.88408263 -19.93900464 5.93328633 -18 3.8125 C-16 2 -16 2 -13.9375 2.0625 C-12 3 -12 3 -10.5 4.625 C-9.10878143 6.21116395 -9.10878143 6.21116395 -7.125 6 C-4.12019083 4.58597216 -2.23295498 2.41903456 0 0 Z " fill="#181717" transform="translate(724,651)"/>
<path d="M0 0 C19.47 0 38.94 0 59 0 C58.67 1.32 58.34 2.64 58 4 C50.56187865 4.05077019 43.12380212 4.08576318 35.68554688 4.10986328 C33.15590749 4.11991182 30.62627969 4.13355288 28.09667969 4.15087891 C24.45765317 4.1751772 20.81878043 4.18649475 17.1796875 4.1953125 C16.05134491 4.20563507 14.92300232 4.21595764 13.76046753 4.22659302 C8.45421556 4.22734876 3.94868793 4.18346689 -1 2 C-0.67 1.34 -0.34 0.68 0 0 Z " fill="#030202" transform="translate(590,728)"/>
<path d="M0 0 C-0.52099784 4.06008378 -1.54510658 6.05922781 -4.37890625 8.98828125 C-5.05244141 9.69404297 -5.72597656 10.39980469 -6.41992188 11.12695312 C-7.12697266 11.84818359 -7.83402344 12.56941406 -8.5625 13.3125 C-9.27341797 14.05306641 -9.98433594 14.79363281 -10.71679688 15.55664062 C-12.4692998 17.37971414 -14.23038182 19.19356106 -16 21 C-20.01709472 20.17580389 -21.87780752 18.58426431 -24.8125 15.6875 C-25.62332031 14.90761719 -26.43414063 14.12773438 -27.26953125 13.32421875 C-29 11 -29 11 -28.76171875 8.70703125 C-28.51035156 8.14371094 -28.25898437 7.58039062 -28 7 C-24.60807637 7.59283621 -22.7892243 8.76743189 -20.25 11.0625 C-19.32960938 11.88427734 -19.32960938 11.88427734 -18.390625 12.72265625 C-17.93171875 13.14417969 -17.4728125 13.56570313 -17 14 C-16.62713867 13.57589844 -16.25427734 13.15179687 -15.87011719 12.71484375 C-14.17473472 10.79951409 -12.46275667 8.8998029 -10.75 7 C-10.16347656 6.33226562 -9.57695313 5.66453125 -8.97265625 4.9765625 C-8.39902344 4.34492187 -7.82539062 3.71328125 -7.234375 3.0625 C-6.71069336 2.47597656 -6.18701172 1.88945313 -5.64746094 1.28515625 C-4 0 -4 0 0 0 Z " fill="#0E0E0E" transform="translate(849,602)"/>
<path d="M0 0 C2.4375 1.5625 2.4375 1.5625 4 4 C4.56288002 7.94016013 4.60396028 10.05782196 2.4375 13.4375 C-0.94217804 15.60396028 -3.05983987 15.56288002 -7 15 C-9.4375 13.4375 -9.4375 13.4375 -11 11 C-11.56288002 7.05983987 -11.60396028 4.94217804 -9.4375 1.5625 C-6.05782196 -0.60396028 -3.94016013 -0.56288002 0 0 Z " fill="#DFDDD9" transform="translate(632,643)"/>
<path d="M0 0 C4.13810942 3.86223546 5.85380812 6.12228876 6.30078125 11.86328125 C6.3153335 13.34628791 6.31890909 14.82943579 6.3125 16.3125 C6.32861328 17.04662109 6.34472656 17.78074219 6.36132812 18.53710938 C6.3659455 23.74089091 5.48627776 27.4045103 3 32 C0.3125 33.4375 0.3125 33.4375 -2 34 C-1.55756133 30.38675085 -1.01433571 27.04638022 0.0625 23.5625 C1.97301167 16.30255567 1.09591081 11.70780676 -2 5 C-2 3.68 -2 2.36 -2 1 C-1.34 0.67 -0.68 0.34 0 0 Z " fill="#0A0A0A" transform="translate(857,676)"/>
<path d="M0 0 C0.66 0.33 1.32 0.66 2 1 C-3.42465753 7.78082192 -3.42465753 7.78082192 -7 10 C-7.66 10 -8.32 10 -9 10 C-9.33 9.34 -9.66 8.68 -10 8 C-11.65 8 -13.3 8 -15 8 C-12.99006295 5.99006295 -11.40788768 5.10059081 -8.875 3.875 C-8.15054688 3.52179687 -7.42609375 3.16859375 -6.6796875 2.8046875 C-6.12539063 2.53914062 -5.57109375 2.27359375 -5 2 C-4.67 2.66 -4.34 3.32 -4 4 C-2.68 2.68 -1.36 1.36 0 0 Z " fill="#17181B" transform="translate(857,546)"/>
<path d="M0 0 C3.3 0 6.6 0 10 0 C10 0.33 10 0.66 10 1 C7.69 1.33 5.38 1.66 3 2 C3 4.31 3 6.62 3 9 C5.97 9.495 5.97 9.495 9 10 C9 10.33 9 10.66 9 11 C6.03 11 3.06 11 0 11 C0 7.37 0 3.74 0 0 Z " fill="#D6D6D4" transform="translate(588,733)"/>
<path d="M0 0 C0.66 0.66 1.32 1.32 2 2 C2.99 2.33 3.98 2.66 5 3 C4.04882866 4.1725131 3.08882991 5.33787015 2.125 6.5 C1.59132813 7.1496875 1.05765625 7.799375 0.5078125 8.46875 C0.01023437 8.9740625 -0.48734375 9.479375 -1 10 C-1.66 10 -2.32 10 -3 10 C-2.25 3.375 -2.25 3.375 0 0 Z " fill="#181A1C" transform="translate(854,706)"/>
<path d="M0 0 C2.31 0 4.62 0 7 0 C7 1.32 7 2.64 7 4 C4.36 4 1.72 4 -1 4 C-0.67 2.68 -0.34 1.36 0 0 Z " fill="#080909" transform="translate(626,659)"/>
<path d="M0 0 C3.21043882 1.38188453 5.04936365 2.92421903 7.25 5.625 C8.03117188 6.57246094 8.03117188 6.57246094 8.828125 7.5390625 C9.40820312 8.26222656 9.40820312 8.26222656 10 9 C9.34 9.66 8.68 10.32 8 11 C6.66072279 9.54712339 5.32873153 8.08752741 4 6.625 C3.2575 5.81289063 2.515 5.00078125 1.75 4.1640625 C0 2 0 2 0 0 Z " fill="#171819" transform="translate(850,506)"/>
<path d="M0 0 C2.125 0.375 2.125 0.375 4 1 C4 1.33 4 1.66 4 2 C5.65 2.33 7.3 2.66 9 3 C9 3.33 9 3.66 9 4 C2.6 5.35384615 2.6 5.35384615 -0.4375 3.5625 C-0.953125 3.046875 -1.46875 2.53125 -2 2 C-1.34 1.34 -0.68 0.68 0 0 Z " fill="#121211" transform="translate(586,728)"/>
<path d="M0 0 C1.65 0.33 3.3 0.66 5 1 C3.515 3.475 3.515 3.475 2 6 C1.01 5.01 0.02 4.02 -1 3 C-0.67 2.01 -0.34 1.02 0 0 Z " fill="#111113" transform="translate(488,377)"/>
<path d="M0 0 C0.66 0.33 1.32 0.66 2 1 C1.34 2.32 0.68 3.64 0 5 C-0.99 5 -1.98 5 -3 5 C-3.33 4.01 -3.66 3.02 -4 2 C-2.125 0.9375 -2.125 0.9375 0 0 Z " fill="#D6D1CE" transform="translate(833,611)"/>
<path d="M0 0 C0.99 1.32 1.98 2.64 3 4 C2.34 4.66 1.68 5.32 1 6 C-1.625 5.625 -1.625 5.625 -4 5 C-2.68 3.35 -1.36 1.7 0 0 Z " fill="#1B1B1A" transform="translate(724,651)"/>
</svg>
