<svg xmlns="http://www.w3.org/2000/svg" viewBox="0 0 512 512" fill="currentColor">
  <g transform="translate(0,512) scale(0.1,-0.1)">
    <path d="M296 5109 c-109 -26 -216 -114 -264 -217 l-27 -57 0 -2285 0 -2285 23 -57 c31 -76 98 -149 164 -179 l53 -24 2235 -3 c2482 -3 2317 -7 2436 64 72 42 142 115 175 180 l24 49 3 2244 c3 2496 7 2313 -66 2421 -21 31 -61 71 -92 92 -107 73 74 68 -2400 67 -1300 -1 -2241 -5 -2264 -10z m885 -639 c304 -58 459 -390 314 -670 -24 -47 -112 -137 -161 -166 -153 -90 -343 -86 -488 11 -72 47 -121 104 -158 182 -159 335 129 712 493 643z m2454 -1281 c134 -16 230 -44 330 -94 256 -127 380 -364 415 -789 6 -73 10 -441 10 -852 l0 -724 -365 0 -365 0 0 608 c0 334 -5 655 -10 714 -29 308 -169 488 -391 505 -218 16 -411 -84 -496 -258 -75 -152 -83 -239 -83 -971 l0 -598 -365 0 -365 0 0 1220 0 1220 345 0 345 0 1 -177 0 -178 22 30 c110 148 288 262 496 315 148 39 314 49 476 29z m-2175 -1239 l0 -1220 -365 0 -365 0 0 1220 0 1220 365 0 365 0 0 -1220z"/>
  </g>
</svg>
