<?xml version="1.0" encoding="UTF-8"?>
<svg version="1.1" xmlns="http://www.w3.org/2000/svg" width="128" height="128">
<path d="M0 0 C0.639375 -0.00773437 1.27875 -0.01546875 1.9375 -0.0234375 C5.99310003 0.76003069 8.48012883 2.62812515 10.82104492 5.99121094 C11.36865479 7.02020508 11.91626465 8.04919922 12.48046875 9.109375 C13.08697266 10.24117187 13.69347656 11.37296875 14.31835938 12.5390625 C14.62539795 13.12848633 14.93243652 13.71791016 15.2487793 14.32519531 C16.18138458 16.11327494 17.13462941 17.88903248 18.09179688 19.6640625 C21.03564925 25.2180257 23.29301774 30.31798021 25 36.375 C26.09987338 38.77447114 26.09987338 38.77447114 27.3828125 40.93359375 C27.82753906 41.73216797 28.27226563 42.53074219 28.73046875 43.35351562 C29.66039121 44.99325284 30.59791526 46.62870222 31.54296875 48.25976562 C34.50568321 53.61942837 35.74151164 57.23581801 35 63.375 C32.9375 66.375 32.9375 66.375 30 68.375 C25.67561906 69.06998979 23.76802378 68.86522795 20.0625 66.5 C18 64.375 18 64.375 18 62.375 C20.31 61.715 22.62 61.055 25 60.375 C22.74751537 54.34740147 20.23736359 48.72717955 16.953125 43.1875 C16 41.375 16 41.375 16 39.375 C10.50872142 38.00443308 10.50872142 38.00443308 5.16015625 39.2578125 C0.58818991 43.02296125 -2.97966665 47.88202387 -6.6640625 52.484375 C-8.96921515 55.33690503 -11.32702135 58.12198106 -13.75 60.875 C-14.44609375 61.6690625 -15.1421875 62.463125 -15.859375 63.28125 C-19.15282607 66.5025817 -22.28232345 68.80298856 -27 68.8125 C-29.94873168 68.67314595 -31.20977416 68.26788128 -33.9375 66.875 C-36.64295109 63.59566535 -37.08327376 60.52155759 -37 56.375 C-36.06566146 53.73808902 -35.16644205 51.70476065 -33.8125 49.3125 C-33.45736328 48.64621582 -33.10222656 47.97993164 -32.73632812 47.29345703 C-31.94327924 45.80632264 -31.14220553 44.32344849 -30.33447266 42.84423828 C-28.87929614 40.15165589 -27.47344404 37.43690643 -26.07421875 34.71484375 C-23.09006945 28.91312675 -20.0578904 23.13815154 -17 17.375 C-16.38729248 16.21436035 -16.38729248 16.21436035 -15.76220703 15.03027344 C-14.71104502 13.05294756 -13.64186051 11.0870399 -12.5625 9.125 C-11.98628906 8.06796875 -11.41007812 7.0109375 -10.81640625 5.921875 C-8.02498363 2.00788028 -4.86629677 -0.05886649 0 0 Z M-1 9.375 C-5.29657655 15.99923647 -9.06702056 22.8735452 -12.78588867 29.83154297 C-13.82287219 31.76938281 -14.86727426 33.70310324 -15.91210938 35.63671875 C-16.57336557 36.86955099 -17.23418914 38.1026154 -17.89453125 39.3359375 C-18.78942261 41.00342041 -18.78942261 41.00342041 -19.70239258 42.70458984 C-21.14568471 45.1799808 -21.14568471 45.1799808 -21 47.375 C-17.75999925 46.29499975 -17.3663642 45.87716138 -15.51953125 43.21484375 C-14.85727539 42.2722168 -14.85727539 42.2722168 -14.18164062 41.31054688 C-13.72982422 40.65119141 -13.27800781 39.99183594 -12.8125 39.3125 C-12.34908203 38.64927734 -11.88566406 37.98605469 -11.40820312 37.30273438 C-10.26527137 35.66492495 -9.1317282 34.02057103 -8 32.375 C-8.495 33.468125 -8.99 34.56125 -9.5 35.6875 C-11.18839906 39.17466245 -11.18839906 39.17466245 -11 42.375 C-10.25234375 41.60414062 -9.5046875 40.83328125 -8.734375 40.0390625 C-7.73985349 39.02577644 -6.74504677 38.01277025 -5.75 37 C-5.25886719 36.49210937 -4.76773438 35.98421875 -4.26171875 35.4609375 C-0.05618266 31.1993276 2.8120924 29.27393302 8.75 28.75 C9.54921875 28.67523438 10.3484375 28.60046875 11.171875 28.5234375 C11.77515625 28.47445312 12.3784375 28.42546875 13 28.375 C12.41347656 27.68921875 11.82695313 27.0034375 11.22265625 26.296875 C8.10845142 22.20298183 5.99043001 17.7234712 3.68359375 13.140625 C2.23788048 10.0954557 2.23788048 10.0954557 -1 9.375 Z M-13 42.375 C-13 45.375 -13 45.375 -13 45.375 Z M-19 49.375 C-18 51.375 -18 51.375 -18 51.375 Z M-25 52.375 C-24 54.375 -24 54.375 -24 54.375 Z M-26 54.375 C-26.33 55.695 -26.66 57.015 -27 58.375 C-26.01 57.715 -25.02 57.055 -24 56.375 C-24.66 55.715 -25.32 55.055 -26 54.375 Z " fill="#1A8FEE" transform="translate(64,27.625)"/>
<path d="M0 0 C2.5 2.1875 2.5 2.1875 4 5 C4 8.25160323 3.20471813 9.70079658 1.375 12.375 C-1 14 -1 14 -4.5625 14.0625 C-8 13 -8 13 -10 10.75 C-11.15949287 7.5613946 -11.16582954 6.16439447 -10 3 C-7.5523796 -0.94338842 -4.29578852 -0.60291769 0 0 Z " fill="#3077E4" transform="translate(73,78)"/>
<path d="M0 0 C3.6200931 3.17835555 5.3421101 7.27241902 7.5 11.50390625 C8.90568965 14.24584938 8.90568965 14.24584938 12 16 C12.99 16 13.98 16 15 16 C14.855625 15.443125 14.71125 14.88625 14.5625 14.3125 C13.97230872 11.88615805 13.476571 9.45093655 13 7 C15.65171248 9.37094293 17.1490052 11.83568087 18.75 15 C19.19859375 15.86625 19.6471875 16.7325 20.109375 17.625 C21 20 21 20 20 23 C19.34 23 18.68 23 18 23 C17.67 22.34 17.34 21.68 17 21 C14.73743083 20.19415344 12.44920748 19.59481291 10.12890625 18.9765625 C7.38898066 17.7197159 7.10464405 16.76872156 6 14 C5.50242187 13.02804688 5.00484375 12.05609375 4.4921875 11.0546875 C3.95851563 10.00539063 3.42484375 8.95609375 2.875 7.875 C2.33617188 6.82054687 1.79734375 5.76609375 1.2421875 4.6796875 C0 2 0 2 0 0 Z " fill="#3CABF9" transform="translate(67,39)"/>
<path d="M0 0 C0.33 0.66 0.66 1.32 1 2 C-1.62876714 9.36391821 -9.86408493 21.43204247 -17 25 C-15.828125 18.9453125 -15.828125 18.9453125 -15 17 C-14.42121094 16.73058594 -13.84242187 16.46117188 -13.24609375 16.18359375 C-9.72509244 14.32817915 -8.01334484 11.17897925 -5.8125 7.9375 C-4.9237281 6.65456602 -4.03443217 5.37199485 -3.14453125 4.08984375 C-2.43683594 3.07019531 -1.72914062 2.05054688 -1 1 C-0.67 0.67 -0.34 0.34 0 0 Z " fill="#FDFDFE" transform="translate(56,59)"/>
<path d="M0 0 C1 3 1 3 0.19555664 5.0847168 C-0.22862549 5.86500244 -0.65280762 6.64528809 -1.08984375 7.44921875 C-1.54423828 8.29677734 -1.99863281 9.14433594 -2.46679688 10.01757812 C-2.95212891 10.89865234 -3.43746094 11.77972656 -3.9375 12.6875 C-4.65969727 14.02651367 -4.65969727 14.02651367 -5.39648438 15.39257812 C-6.58876897 17.60007534 -7.79017894 19.80207933 -9 22 C-5.59787701 20.38617243 -2.89675481 18.41396234 0 16 C-1.53416298 19.98882376 -4.4247074 23.64783382 -8 26 C-10.1953125 25.66796875 -10.1953125 25.66796875 -12 25 C-10.37317535 19.29676416 -7.66802013 14.31986097 -4.875 9.125 C-4.40707031 8.24585937 -3.93914063 7.36671875 -3.45703125 6.4609375 C-2.3087907 4.30505729 -1.15636097 2.15153223 0 0 Z " fill="#1E66E5" transform="translate(47,62)"/>
<path d="M0 0 C3.3 0 6.6 0 10 0 C10 0.66 10 1.32 10 2 C11.32 2.33 12.64 2.66 14 3 C14 3.66 14 4.32 14 5 C10.89951072 6.55024464 8.42105782 6.28992015 5 6 C2.0625 4.125 2.0625 4.125 0 2 C0 1.34 0 0.68 0 0 Z " fill="#1D53D5" transform="translate(82,90)"/>
<path d="M0 0 C2.64 0 5.28 0 8 0 C8.38218767 1.65614657 8.71395102 3.32457024 9 5 C8 6 8 6 5.125 6.1875 C2 6 2 6 -1 4 C-0.67 2.68 -0.34 1.36 0 0 Z " fill="#1463DA" transform="translate(64,84)"/>
<path d="M0 0 C3.5625 0.5625 3.5625 0.5625 6.0625 2.875 C6.5575 3.761875 7.0525 4.64875 7.5625 5.5625 C7.2325 6.5525 6.9025 7.5425 6.5625 8.5625 C6.5625 7.9025 6.5625 7.2425 6.5625 6.5625 C2.2725 5.9025 -2.0175 5.2425 -6.4375 4.5625 C-3.4375 0.5625 -3.4375 0.5625 0 0 Z " fill="#1E90F5" transform="translate(69.4375,77.4375)"/>
<path d="M0 0 C0.99 0.33 1.98 0.66 3 1 C1.8759417 4.25976906 1.07187022 4.96186478 -2.0625 6.625 C-3.031875 7.07875 -4.00125 7.5325 -5 8 C-5.33 8.66 -5.66 9.32 -6 10 C-6.66 10 -7.32 10 -8 10 C-7.1875 7.5625 -7.1875 7.5625 -6 5 C-5.01 4.67 -4.02 4.34 -3 4 C-2.67 3.01 -2.34 2.02 -2 1 C-1.34 0.67 -0.68 0.34 0 0 Z " fill="#FEFEFE" transform="translate(69,71)"/>
<path d="M0 0 C2.31 0.66 4.62 1.32 7 2 C7.33 3.65 7.66 5.3 8 7 C7.67 6.34 7.34 5.68 7 5 C6.38125 4.87625 5.7625 4.7525 5.125 4.625 C2.32606997 3.80178529 1.54719585 2.39815356 0 0 Z " fill="#2A94F2" transform="translate(69,79)"/>
<path d="M0 0 C1.65 0 3.3 0 5 0 C5.33 1.32 5.66 2.64 6 4 C5.01 4.33 4.02 4.66 3 5 C2.67 4.34 2.34 3.68 2 3 C1.01 2.67 0.02 2.34 -1 2 C-0.67 1.34 -0.34 0.68 0 0 Z " fill="#4B9DF7" transform="translate(82,57)"/>
<path d="M0 0 C1.65 0 3.3 0 5 0 C4.01 0.495 4.01 0.495 3 1 C4.32 2.65 5.64 4.3 7 6 C2.32307692 4.52307692 2.32307692 4.52307692 0.6875 1.875 C0.460625 1.25625 0.23375 0.6375 0 0 Z " fill="#506DE2" transform="translate(82,90)"/>
<path d="M0 0 C2.64 0.33 5.28 0.66 8 1 C8 1.33 8 1.66 8 2 C6.329375 2.2165625 6.329375 2.2165625 4.625 2.4375 C1.17857953 2.78372035 1.17857953 2.78372035 -1 4 C-0.67 2.68 -0.34 1.36 0 0 Z " fill="#3687EB" transform="translate(63,82)"/>
<path d="M0 0 C2.1875 0.3125 2.1875 0.3125 4 1 C1.69 1.66 -0.62 2.32 -3 3 C-1.75 1.4375 -1.75 1.4375 0 0 Z " fill="#FFFFFF" transform="translate(59,25)"/>
<path d="M0 0 C0.66 0.33 1.32 0.66 2 1 C0.68 1.99 -0.64 2.98 -2 4 C-2.66 3.67 -3.32 3.34 -4 3 C-2.68 2.01 -1.36 1.02 0 0 Z " fill="#FFFFFF" transform="translate(65,54)"/>
<path d="M0 0 C3 1 3 1 3 1 Z " fill="#FFFFFF" transform="translate(65,52)"/>
<path d="M0 0 C2 1 2 1 2 1 Z " fill="#FFFFFF" transform="translate(84,88)"/>
<path d="" fill="#FFFFFF" transform="translate(0,0)"/>
<path d="" fill="#FFFFFF" transform="translate(0,0)"/>
<path d="" fill="#FFFFFF" transform="translate(0,0)"/>
<path d="" fill="#FFFFFF" transform="translate(0,0)"/>
<path d="" fill="#FFFFFF" transform="translate(0,0)"/>
</svg>
